<mxfile host="app.diagrams.net" modified="2023-10-19T14:14:39.130Z" agent="Mozilla/5.0 (Windows NT 10.0; Win64; x64; rv:109.0) Gecko/20100101 Firefox/118.0" etag="Ay1HfY_SvCF_A2wTHGqK" version="22.0.4" type="device">
  <diagram id="R2lEEEUBdFMjLlhIrx00" name="Page-1">
    <mxGraphModel dx="2534" dy="480" grid="1" gridSize="10" guides="1" tooltips="1" connect="1" arrows="1" fold="1" page="1" pageScale="1" pageWidth="1654" pageHeight="1169" math="0" shadow="0" extFonts="Permanent Marker^https://fonts.googleapis.com/css?family=Permanent+Marker">
      <root>
        <mxCell id="0" />
        <mxCell id="1" parent="0" />
        <mxCell id="dat1O9weuYubN_Yfm_El-21" style="edgeStyle=orthogonalEdgeStyle;rounded=0;orthogonalLoop=1;jettySize=auto;html=1;exitX=0.5;exitY=1;exitDx=0;exitDy=0;entryX=0;entryY=0.5;entryDx=0;entryDy=0;endArrow=none;endFill=0;startArrow=ERmandOne;startFill=0;strokeColor=default;" parent="1" source="XW_Ym_8bZxLRkyebTSH3-1" target="dat1O9weuYubN_Yfm_El-20" edge="1">
          <mxGeometry relative="1" as="geometry" />
        </mxCell>
        <mxCell id="dat1O9weuYubN_Yfm_El-32" style="edgeStyle=orthogonalEdgeStyle;rounded=0;orthogonalLoop=1;jettySize=auto;html=1;exitX=0.75;exitY=1;exitDx=0;exitDy=0;endArrow=none;endFill=0;startArrow=ERmandOne;startFill=0;fillColor=#f8cecc;strokeColor=default;" parent="1" source="XW_Ym_8bZxLRkyebTSH3-1" target="dat1O9weuYubN_Yfm_El-33" edge="1">
          <mxGeometry relative="1" as="geometry">
            <mxPoint x="-607" y="555" as="targetPoint" />
          </mxGeometry>
        </mxCell>
        <mxCell id="dat1O9weuYubN_Yfm_El-47" style="edgeStyle=orthogonalEdgeStyle;rounded=0;orthogonalLoop=1;jettySize=auto;html=1;exitX=1;exitY=0.25;exitDx=0;exitDy=0;entryX=0.5;entryY=0;entryDx=0;entryDy=0;endArrow=none;endFill=0;startArrow=ERmandOne;startFill=0;strokeColor=default;" parent="1" source="XW_Ym_8bZxLRkyebTSH3-1" target="dat1O9weuYubN_Yfm_El-41" edge="1">
          <mxGeometry relative="1" as="geometry">
            <Array as="points">
              <mxPoint x="-697" y="480" />
              <mxPoint x="-697" y="395" />
              <mxPoint x="-70" y="395" />
            </Array>
          </mxGeometry>
        </mxCell>
        <mxCell id="l4TOCZvBJScHaWaNTjH9-3" style="edgeStyle=orthogonalEdgeStyle;rounded=0;orthogonalLoop=1;jettySize=auto;html=1;entryX=1;entryY=0.5;entryDx=0;entryDy=0;endArrow=none;endFill=0;startArrow=ERzeroToMany;startFill=0;" parent="1" source="XW_Ym_8bZxLRkyebTSH3-1" target="l4TOCZvBJScHaWaNTjH9-1" edge="1">
          <mxGeometry relative="1" as="geometry" />
        </mxCell>
        <mxCell id="XW_Ym_8bZxLRkyebTSH3-1" value="Student" style="whiteSpace=wrap;html=1;align=center;strokeColor=default;" parent="1" vertex="1">
          <mxGeometry x="-1020" y="470" width="261" height="40" as="geometry" />
        </mxCell>
        <mxCell id="dat1O9weuYubN_Yfm_El-43" style="edgeStyle=orthogonalEdgeStyle;rounded=0;orthogonalLoop=1;jettySize=auto;html=1;endArrow=none;endFill=0;startArrow=ERmandOne;startFill=0;strokeColor=default;" parent="1" source="XW_Ym_8bZxLRkyebTSH3-3" target="dat1O9weuYubN_Yfm_El-44" edge="1">
          <mxGeometry relative="1" as="geometry">
            <mxPoint x="-277" y="575" as="targetPoint" />
          </mxGeometry>
        </mxCell>
        <mxCell id="XW_Ym_8bZxLRkyebTSH3-3" value="Advisor" style="whiteSpace=wrap;html=1;align=center;strokeColor=default;" parent="1" vertex="1">
          <mxGeometry x="-379" y="470" width="100" height="40" as="geometry" />
        </mxCell>
        <mxCell id="Vwcr2eOuwbWK2HyRA7sR-13" style="edgeStyle=orthogonalEdgeStyle;rounded=0;orthogonalLoop=1;jettySize=auto;html=1;endArrow=none;endFill=0;startArrow=ERoneToMany;startFill=0;" parent="1" source="XW_Ym_8bZxLRkyebTSH3-5" target="Vwcr2eOuwbWK2HyRA7sR-14" edge="1">
          <mxGeometry relative="1" as="geometry">
            <mxPoint x="-1350" y="520" as="targetPoint" />
          </mxGeometry>
        </mxCell>
        <mxCell id="l4TOCZvBJScHaWaNTjH9-2" style="edgeStyle=orthogonalEdgeStyle;rounded=0;orthogonalLoop=1;jettySize=auto;html=1;entryX=0;entryY=0.5;entryDx=0;entryDy=0;endArrow=none;endFill=0;startArrow=ERmandOne;startFill=0;" parent="1" source="XW_Ym_8bZxLRkyebTSH3-5" target="l4TOCZvBJScHaWaNTjH9-1" edge="1">
          <mxGeometry relative="1" as="geometry" />
        </mxCell>
        <mxCell id="XW_Ym_8bZxLRkyebTSH3-5" value="Instructor" style="whiteSpace=wrap;html=1;align=center;strokeColor=default;" parent="1" vertex="1">
          <mxGeometry x="-1379" y="440" width="100" height="40" as="geometry" />
        </mxCell>
        <mxCell id="XW_Ym_8bZxLRkyebTSH3-6" value="Admin" style="whiteSpace=wrap;html=1;align=center;strokeColor=default;" parent="1" vertex="1">
          <mxGeometry x="-1547" y="165" width="100" height="40" as="geometry" />
        </mxCell>
        <mxCell id="47NcXSXN2KB8R4KD-vC--4" style="edgeStyle=orthogonalEdgeStyle;rounded=0;orthogonalLoop=1;jettySize=auto;html=1;exitX=0.418;exitY=0.007;exitDx=0;exitDy=0;entryX=0.5;entryY=1;entryDx=0;entryDy=0;startArrow=ERzeroToMany;startFill=0;endArrow=none;endFill=0;strokeColor=default;exitPerimeter=0;" parent="1" source="XW_Ym_8bZxLRkyebTSH3-7" target="47NcXSXN2KB8R4KD-vC--1" edge="1">
          <mxGeometry relative="1" as="geometry">
            <Array as="points">
              <mxPoint x="-1308" y="620" />
            </Array>
          </mxGeometry>
        </mxCell>
        <mxCell id="dat1O9weuYubN_Yfm_El-3" style="edgeStyle=orthogonalEdgeStyle;rounded=0;orthogonalLoop=1;jettySize=auto;html=1;exitX=1;exitY=0.25;exitDx=0;exitDy=0;startArrow=ERmandOne;startFill=0;endArrow=none;endFill=0;fillColor=#f8cecc;strokeColor=default;entryX=0.5;entryY=0;entryDx=0;entryDy=0;" parent="1" source="XW_Ym_8bZxLRkyebTSH3-7" target="Vwcr2eOuwbWK2HyRA7sR-2" edge="1">
          <mxGeometry relative="1" as="geometry">
            <mxPoint x="-1249.9714285714285" y="880.0142857142857" as="targetPoint" />
            <Array as="points">
              <mxPoint x="-1180" y="650" />
              <mxPoint x="-1180" y="850" />
              <mxPoint x="-1250" y="850" />
            </Array>
          </mxGeometry>
        </mxCell>
        <mxCell id="XW_Ym_8bZxLRkyebTSH3-7" value="Course" style="whiteSpace=wrap;html=1;align=center;strokeColor=default;" parent="1" vertex="1">
          <mxGeometry x="-1379" y="640" width="169" height="40" as="geometry" />
        </mxCell>
        <mxCell id="XW_Ym_8bZxLRkyebTSH3-18" style="edgeStyle=orthogonalEdgeStyle;rounded=0;orthogonalLoop=1;jettySize=auto;html=1;entryX=0.5;entryY=0;entryDx=0;entryDy=0;shape=link;strokeColor=default;" parent="1" source="XW_Ym_8bZxLRkyebTSH3-8" target="XW_Ym_8bZxLRkyebTSH3-17" edge="1">
          <mxGeometry relative="1" as="geometry" />
        </mxCell>
        <mxCell id="dat1O9weuYubN_Yfm_El-76" style="edgeStyle=orthogonalEdgeStyle;rounded=0;orthogonalLoop=1;jettySize=auto;html=1;exitX=0;exitY=0.5;exitDx=0;exitDy=0;entryX=0.5;entryY=1;entryDx=0;entryDy=0;endArrow=none;endFill=0;strokeColor=default;" parent="1" source="XW_Ym_8bZxLRkyebTSH3-8" target="dat1O9weuYubN_Yfm_El-74" edge="1">
          <mxGeometry relative="1" as="geometry" />
        </mxCell>
        <mxCell id="dat1O9weuYubN_Yfm_El-77" style="edgeStyle=orthogonalEdgeStyle;rounded=0;orthogonalLoop=1;jettySize=auto;html=1;entryX=0.5;entryY=1;entryDx=0;entryDy=0;endArrow=none;endFill=0;strokeColor=default;" parent="1" source="XW_Ym_8bZxLRkyebTSH3-8" target="dat1O9weuYubN_Yfm_El-75" edge="1">
          <mxGeometry relative="1" as="geometry" />
        </mxCell>
        <mxCell id="XW_Ym_8bZxLRkyebTSH3-8" value="User" style="whiteSpace=wrap;html=1;align=center;strokeColor=default;" parent="1" vertex="1">
          <mxGeometry x="-709" y="125" width="100" height="40" as="geometry" />
        </mxCell>
        <mxCell id="dat1O9weuYubN_Yfm_El-13" style="edgeStyle=orthogonalEdgeStyle;rounded=0;orthogonalLoop=1;jettySize=auto;html=1;entryX=0.5;entryY=1;entryDx=0;entryDy=0;endArrow=none;endFill=0;startArrow=ERzeroToMany;startFill=0;exitX=1;exitY=0.25;exitDx=0;exitDy=0;strokeColor=default;" parent="1" source="XW_Ym_8bZxLRkyebTSH3-9" target="XW_Ym_8bZxLRkyebTSH3-42" edge="1">
          <mxGeometry relative="1" as="geometry">
            <Array as="points">
              <mxPoint x="-529" y="650" />
            </Array>
          </mxGeometry>
        </mxCell>
        <mxCell id="dat1O9weuYubN_Yfm_El-25" style="edgeStyle=orthogonalEdgeStyle;rounded=0;orthogonalLoop=1;jettySize=auto;html=1;entryX=0;entryY=0.5;entryDx=0;entryDy=0;endArrow=none;endFill=0;startArrow=ERmandOne;startFill=0;strokeColor=default;exitX=0.791;exitY=0.991;exitDx=0;exitDy=0;exitPerimeter=0;" parent="1" source="XW_Ym_8bZxLRkyebTSH3-9" target="dat1O9weuYubN_Yfm_El-23" edge="1">
          <mxGeometry relative="1" as="geometry">
            <Array as="points">
              <mxPoint x="-870" y="760" />
            </Array>
            <mxPoint x="-850" y="670" as="sourcePoint" />
          </mxGeometry>
        </mxCell>
        <mxCell id="Vwcr2eOuwbWK2HyRA7sR-25" style="edgeStyle=orthogonalEdgeStyle;rounded=0;orthogonalLoop=1;jettySize=auto;html=1;exitX=1;exitY=0.75;exitDx=0;exitDy=0;entryX=0.5;entryY=1;entryDx=0;entryDy=0;endArrow=none;endFill=0;startArrow=ERmandOne;startFill=0;" parent="1" source="XW_Ym_8bZxLRkyebTSH3-9" target="dat1O9weuYubN_Yfm_El-33" edge="1">
          <mxGeometry relative="1" as="geometry" />
        </mxCell>
        <mxCell id="XW_Ym_8bZxLRkyebTSH3-9" value="Semester" style="whiteSpace=wrap;html=1;align=center;strokeColor=default;" parent="1" vertex="1">
          <mxGeometry x="-949" y="640" width="100" height="40" as="geometry" />
        </mxCell>
        <mxCell id="XW_Ym_8bZxLRkyebTSH3-10" value="Slot" style="whiteSpace=wrap;html=1;align=center;strokeColor=default;" parent="1" vertex="1">
          <mxGeometry x="-1527" y="540" width="100" height="40" as="geometry" />
        </mxCell>
        <mxCell id="dat1O9weuYubN_Yfm_El-28" style="edgeStyle=orthogonalEdgeStyle;rounded=0;orthogonalLoop=1;jettySize=auto;html=1;exitX=1;exitY=0.5;exitDx=0;exitDy=0;entryX=0.5;entryY=0;entryDx=0;entryDy=0;endArrow=none;endFill=0;startArrow=ERmandOne;startFill=0;strokeColor=default;" parent="1" source="XW_Ym_8bZxLRkyebTSH3-12" target="dat1O9weuYubN_Yfm_El-26" edge="1">
          <mxGeometry relative="1" as="geometry">
            <Array as="points">
              <mxPoint x="-467" y="710" />
            </Array>
          </mxGeometry>
        </mxCell>
        <mxCell id="XW_Ym_8bZxLRkyebTSH3-12" value="Payment" style="whiteSpace=wrap;html=1;align=center;strokeColor=default;" parent="1" vertex="1">
          <mxGeometry x="-699" y="690" width="179" height="40" as="geometry" />
        </mxCell>
        <mxCell id="dat1O9weuYubN_Yfm_El-4" style="edgeStyle=orthogonalEdgeStyle;rounded=0;orthogonalLoop=1;jettySize=auto;html=1;entryX=0.5;entryY=1;entryDx=0;entryDy=0;startArrow=ERzeroToMany;startFill=0;endArrow=none;endFill=0;fillColor=#f8cecc;strokeColor=default;exitX=0.515;exitY=0.003;exitDx=0;exitDy=0;exitPerimeter=0;" parent="1" source="Vwcr2eOuwbWK2HyRA7sR-3" target="Vwcr2eOuwbWK2HyRA7sR-2" edge="1">
          <mxGeometry relative="1" as="geometry">
            <mxPoint x="-1365.5" y="1055.5" as="sourcePoint" />
            <Array as="points">
              <mxPoint x="-1366" y="1030" />
              <mxPoint x="-1250" y="1030" />
            </Array>
            <mxPoint x="-1250" y="940" as="targetPoint" />
          </mxGeometry>
        </mxCell>
        <mxCell id="XW_Ym_8bZxLRkyebTSH3-15" value="Request" style="whiteSpace=wrap;html=1;align=center;strokeColor=default;" parent="1" vertex="1">
          <mxGeometry x="-210" y="923" width="100" height="40" as="geometry" />
        </mxCell>
        <mxCell id="dat1O9weuYubN_Yfm_El-48" style="edgeStyle=orthogonalEdgeStyle;rounded=0;orthogonalLoop=1;jettySize=auto;html=1;endArrow=none;endFill=0;strokeColor=default;" parent="1" source="XW_Ym_8bZxLRkyebTSH3-17" target="XW_Ym_8bZxLRkyebTSH3-6" edge="1">
          <mxGeometry relative="1" as="geometry">
            <Array as="points">
              <mxPoint x="-870" y="185" />
              <mxPoint x="-870" y="110" />
              <mxPoint x="-1430" y="110" />
              <mxPoint x="-1430" y="185" />
            </Array>
          </mxGeometry>
        </mxCell>
        <mxCell id="dat1O9weuYubN_Yfm_El-62" style="edgeStyle=orthogonalEdgeStyle;rounded=0;orthogonalLoop=1;jettySize=auto;html=1;entryX=0.852;entryY=-0.003;entryDx=0;entryDy=0;entryPerimeter=0;exitX=0;exitY=0.5;exitDx=0;exitDy=0;endArrow=none;endFill=0;strokeColor=default;" parent="1" source="dat1O9weuYubN_Yfm_El-65" target="XW_Ym_8bZxLRkyebTSH3-1" edge="1">
          <mxGeometry relative="1" as="geometry">
            <mxPoint x="-659" y="245" as="targetPoint" />
            <mxPoint x="-659" y="305" as="sourcePoint" />
            <Array as="points">
              <mxPoint x="-659" y="315" />
              <mxPoint x="-659" y="365" />
              <mxPoint x="-774" y="365" />
            </Array>
          </mxGeometry>
        </mxCell>
        <mxCell id="dat1O9weuYubN_Yfm_El-64" style="edgeStyle=orthogonalEdgeStyle;rounded=0;orthogonalLoop=1;jettySize=auto;html=1;entryX=0.5;entryY=0;entryDx=0;entryDy=0;endArrow=none;endFill=0;strokeColor=default;" parent="1" source="XW_Ym_8bZxLRkyebTSH3-17" target="dat1O9weuYubN_Yfm_El-63" edge="1">
          <mxGeometry relative="1" as="geometry" />
        </mxCell>
        <mxCell id="XW_Ym_8bZxLRkyebTSH3-17" value="D" style="ellipse;whiteSpace=wrap;html=1;aspect=fixed;strokeColor=default;" parent="1" vertex="1">
          <mxGeometry x="-669" y="175" width="20" height="20" as="geometry" />
        </mxCell>
        <mxCell id="XW_Ym_8bZxLRkyebTSH3-27" value="" style="endArrow=none;html=1;rounded=0;labelBackgroundColor=none;fontSize=15;fontColor=default;horizontal=1;textDirection=ltr;labelPosition=center;verticalLabelPosition=middle;align=center;verticalAlign=middle;exitX=0.5;exitY=0;exitDx=0;exitDy=0;edgeStyle=orthogonalEdgeStyle;entryX=1;entryY=0.5;entryDx=0;entryDy=0;strokeColor=default;" parent="1" source="XW_Ym_8bZxLRkyebTSH3-3" target="dat1O9weuYubN_Yfm_El-65" edge="1">
          <mxGeometry x="0.1429" width="50" height="50" relative="1" as="geometry">
            <mxPoint x="-619" y="460" as="sourcePoint" />
            <mxPoint x="-487" y="265" as="targetPoint" />
            <mxPoint as="offset" />
            <Array as="points">
              <mxPoint x="-329" y="365" />
              <mxPoint x="-507" y="365" />
              <mxPoint x="-507" y="315" />
            </Array>
          </mxGeometry>
        </mxCell>
        <mxCell id="XW_Ym_8bZxLRkyebTSH3-43" style="edgeStyle=orthogonalEdgeStyle;rounded=0;orthogonalLoop=1;jettySize=auto;html=1;entryX=0;entryY=0.5;entryDx=0;entryDy=0;endArrow=ERmandOne;endFill=0;strokeColor=default;" parent="1" source="XW_Ym_8bZxLRkyebTSH3-42" target="XW_Ym_8bZxLRkyebTSH3-3" edge="1">
          <mxGeometry relative="1" as="geometry" />
        </mxCell>
        <mxCell id="XW_Ym_8bZxLRkyebTSH3-50" style="edgeStyle=orthogonalEdgeStyle;rounded=0;orthogonalLoop=1;jettySize=auto;html=1;entryX=1;entryY=0.75;entryDx=0;entryDy=0;endArrow=ERzeroToMany;endFill=0;strokeColor=default;" parent="1" source="XW_Ym_8bZxLRkyebTSH3-42" target="XW_Ym_8bZxLRkyebTSH3-1" edge="1">
          <mxGeometry relative="1" as="geometry" />
        </mxCell>
        <mxCell id="XW_Ym_8bZxLRkyebTSH3-42" value="Is_Advised" style="shape=rhombus;perimeter=rhombusPerimeter;whiteSpace=wrap;html=1;align=center;strokeColor=default;" parent="1" vertex="1">
          <mxGeometry x="-589" y="460" width="120" height="60" as="geometry" />
        </mxCell>
        <mxCell id="47NcXSXN2KB8R4KD-vC--2" style="edgeStyle=orthogonalEdgeStyle;rounded=0;orthogonalLoop=1;jettySize=auto;html=1;entryX=0.25;entryY=0;entryDx=0;entryDy=0;exitX=0;exitY=0.5;exitDx=0;exitDy=0;endArrow=ERzeroToMany;endFill=0;strokeColor=default;" parent="1" source="47NcXSXN2KB8R4KD-vC--1" target="XW_Ym_8bZxLRkyebTSH3-7" edge="1">
          <mxGeometry relative="1" as="geometry">
            <mxPoint x="-1199" y="750" as="targetPoint" />
          </mxGeometry>
        </mxCell>
        <mxCell id="47NcXSXN2KB8R4KD-vC--1" value="requires" style="shape=rhombus;perimeter=rhombusPerimeter;whiteSpace=wrap;html=1;align=center;strokeColor=default;" parent="1" vertex="1">
          <mxGeometry x="-1310" y="540" width="120" height="60" as="geometry" />
        </mxCell>
        <mxCell id="dat1O9weuYubN_Yfm_El-11" style="edgeStyle=orthogonalEdgeStyle;rounded=0;orthogonalLoop=1;jettySize=auto;html=1;exitX=0.5;exitY=1;exitDx=0;exitDy=0;strokeColor=default;" parent="1" source="XW_Ym_8bZxLRkyebTSH3-9" target="XW_Ym_8bZxLRkyebTSH3-9" edge="1">
          <mxGeometry relative="1" as="geometry" />
        </mxCell>
        <mxCell id="dat1O9weuYubN_Yfm_El-16" style="edgeStyle=orthogonalEdgeStyle;rounded=0;orthogonalLoop=1;jettySize=auto;html=1;endArrow=ERzeroToMany;endFill=0;entryX=1;entryY=0.25;entryDx=0;entryDy=0;strokeColor=default;" parent="1" source="dat1O9weuYubN_Yfm_El-14" target="XW_Ym_8bZxLRkyebTSH3-10" edge="1">
          <mxGeometry relative="1" as="geometry" />
        </mxCell>
        <mxCell id="dat1O9weuYubN_Yfm_El-17" style="edgeStyle=orthogonalEdgeStyle;rounded=0;orthogonalLoop=1;jettySize=auto;html=1;entryX=0;entryY=0.5;entryDx=0;entryDy=0;endArrow=ERmandOne;endFill=0;strokeColor=default;" parent="1" source="dat1O9weuYubN_Yfm_El-14" target="XW_Ym_8bZxLRkyebTSH3-5" edge="1">
          <mxGeometry relative="1" as="geometry" />
        </mxCell>
        <mxCell id="dat1O9weuYubN_Yfm_El-14" value="teaches" style="shape=rhombus;perimeter=rhombusPerimeter;whiteSpace=wrap;html=1;align=center;strokeColor=default;" parent="1" vertex="1">
          <mxGeometry x="-1537" y="430" width="120" height="60" as="geometry" />
        </mxCell>
        <mxCell id="dat1O9weuYubN_Yfm_El-18" style="edgeStyle=orthogonalEdgeStyle;rounded=0;orthogonalLoop=1;jettySize=auto;html=1;entryX=1;entryY=0.75;entryDx=0;entryDy=0;endArrow=ERoneToMany;endFill=0;strokeColor=default;" parent="1" source="dat1O9weuYubN_Yfm_El-15" target="XW_Ym_8bZxLRkyebTSH3-10" edge="1">
          <mxGeometry relative="1" as="geometry">
            <Array as="points">
              <mxPoint x="-1477" y="605" />
              <mxPoint x="-1397" y="605" />
              <mxPoint x="-1397" y="570" />
            </Array>
          </mxGeometry>
        </mxCell>
        <mxCell id="dat1O9weuYubN_Yfm_El-19" style="edgeStyle=orthogonalEdgeStyle;rounded=0;orthogonalLoop=1;jettySize=auto;html=1;entryX=0;entryY=0.5;entryDx=0;entryDy=0;endArrow=ERmandOne;endFill=0;strokeColor=default;" parent="1" source="dat1O9weuYubN_Yfm_El-15" target="XW_Ym_8bZxLRkyebTSH3-7" edge="1">
          <mxGeometry relative="1" as="geometry" />
        </mxCell>
        <mxCell id="dat1O9weuYubN_Yfm_El-15" value="belongs_to" style="shape=rhombus;perimeter=rhombusPerimeter;whiteSpace=wrap;html=1;align=center;strokeColor=default;" parent="1" vertex="1">
          <mxGeometry x="-1537" y="630" width="120" height="60" as="geometry" />
        </mxCell>
        <mxCell id="dat1O9weuYubN_Yfm_El-20" value="Pays" style="shape=rhombus;perimeter=rhombusPerimeter;whiteSpace=wrap;html=1;align=center;strokeColor=default;" parent="1" vertex="1">
          <mxGeometry x="-869" y="550" width="120" height="60" as="geometry" />
        </mxCell>
        <mxCell id="dat1O9weuYubN_Yfm_El-22" style="edgeStyle=orthogonalEdgeStyle;rounded=0;orthogonalLoop=1;jettySize=auto;html=1;entryX=0.5;entryY=0;entryDx=0;entryDy=0;endArrow=ERoneToMany;endFill=0;strokeColor=default;exitX=1;exitY=0.5;exitDx=0;exitDy=0;" parent="1" source="dat1O9weuYubN_Yfm_El-20" target="XW_Ym_8bZxLRkyebTSH3-12" edge="1">
          <mxGeometry relative="1" as="geometry">
            <Array as="points">
              <mxPoint x="-730" y="580" />
              <mxPoint x="-730" y="630" />
              <mxPoint x="-610" y="630" />
            </Array>
          </mxGeometry>
        </mxCell>
        <mxCell id="dat1O9weuYubN_Yfm_El-24" style="edgeStyle=orthogonalEdgeStyle;rounded=0;orthogonalLoop=1;jettySize=auto;html=1;entryX=0;entryY=0.5;entryDx=0;entryDy=0;endArrow=ERmandOne;endFill=0;startArrow=none;startFill=0;exitX=0.5;exitY=0;exitDx=0;exitDy=0;strokeColor=default;" parent="1" source="dat1O9weuYubN_Yfm_El-23" target="XW_Ym_8bZxLRkyebTSH3-12" edge="1">
          <mxGeometry relative="1" as="geometry" />
        </mxCell>
        <mxCell id="dat1O9weuYubN_Yfm_El-23" value="Paid_for" style="shape=rhombus;perimeter=rhombusPerimeter;whiteSpace=wrap;html=1;align=center;strokeColor=default;" parent="1" vertex="1">
          <mxGeometry x="-827" y="730" width="120" height="60" as="geometry" />
        </mxCell>
        <mxCell id="dat1O9weuYubN_Yfm_El-29" style="edgeStyle=orthogonalEdgeStyle;rounded=0;orthogonalLoop=1;jettySize=auto;html=1;exitX=0.5;exitY=1;exitDx=0;exitDy=0;entryX=0.5;entryY=0;entryDx=0;entryDy=0;endArrow=ERoneToMany;endFill=0;strokeColor=default;" parent="1" source="dat1O9weuYubN_Yfm_El-26" target="dat1O9weuYubN_Yfm_El-27" edge="1">
          <mxGeometry relative="1" as="geometry">
            <Array as="points">
              <mxPoint x="-467" y="850" />
              <mxPoint x="-380" y="850" />
            </Array>
          </mxGeometry>
        </mxCell>
        <mxCell id="dat1O9weuYubN_Yfm_El-26" value="Payed_in" style="shape=rhombus;double=1;perimeter=rhombusPerimeter;whiteSpace=wrap;html=1;align=center;strokeColor=default;" parent="1" vertex="1">
          <mxGeometry x="-527" y="750" width="120" height="60" as="geometry" />
        </mxCell>
        <mxCell id="dat1O9weuYubN_Yfm_El-27" value="&lt;div&gt;Installment&lt;/div&gt;" style="shape=ext;margin=3;double=1;whiteSpace=wrap;html=1;align=center;strokeColor=default;" parent="1" vertex="1">
          <mxGeometry x="-430" y="880" width="100" height="40" as="geometry" />
        </mxCell>
        <mxCell id="dat1O9weuYubN_Yfm_El-31" style="edgeStyle=orthogonalEdgeStyle;rounded=0;orthogonalLoop=1;jettySize=auto;html=1;exitX=0.5;exitY=1;exitDx=0;exitDy=0;strokeColor=default;endArrow=none;endFill=0;" parent="1" source="XW_Ym_8bZxLRkyebTSH3-15" target="XW_Ym_8bZxLRkyebTSH3-15" edge="1">
          <mxGeometry relative="1" as="geometry" />
        </mxCell>
        <mxCell id="dat1O9weuYubN_Yfm_El-34" style="edgeStyle=orthogonalEdgeStyle;rounded=0;orthogonalLoop=1;jettySize=auto;html=1;entryX=0;entryY=0.5;entryDx=0;entryDy=0;endArrow=ERzeroToMany;endFill=0;fillColor=#f8cecc;strokeColor=default;" parent="1" source="dat1O9weuYubN_Yfm_El-33" target="XW_Ym_8bZxLRkyebTSH3-15" edge="1">
          <mxGeometry relative="1" as="geometry">
            <Array as="points">
              <mxPoint x="-390" y="580" />
              <mxPoint x="-390" y="830" />
              <mxPoint x="-280" y="830" />
              <mxPoint x="-280" y="943" />
            </Array>
          </mxGeometry>
        </mxCell>
        <mxCell id="dat1O9weuYubN_Yfm_El-33" value="Requests" style="shape=rhombus;perimeter=rhombusPerimeter;whiteSpace=wrap;html=1;align=center;fillColor=#FFFFFF;strokeColor=default;" parent="1" vertex="1">
          <mxGeometry x="-657" y="550" width="120" height="60" as="geometry" />
        </mxCell>
        <mxCell id="dat1O9weuYubN_Yfm_El-42" style="edgeStyle=orthogonalEdgeStyle;rounded=0;orthogonalLoop=1;jettySize=auto;html=1;entryX=1;entryY=0.5;entryDx=0;entryDy=0;endArrow=ERzeroToMany;endFill=0;strokeColor=default;" parent="1" source="dat1O9weuYubN_Yfm_El-41" target="l4TOCZvBJScHaWaNTjH9-16" edge="1">
          <mxGeometry relative="1" as="geometry">
            <Array as="points">
              <mxPoint x="-70" y="660" />
            </Array>
            <mxPoint x="-227" y="660" as="targetPoint" />
          </mxGeometry>
        </mxCell>
        <mxCell id="dat1O9weuYubN_Yfm_El-41" value="follows" style="shape=rhombus;perimeter=rhombusPerimeter;whiteSpace=wrap;html=1;align=center;strokeColor=default;" parent="1" vertex="1">
          <mxGeometry x="-130" y="480" width="120" height="60" as="geometry" />
        </mxCell>
        <mxCell id="dat1O9weuYubN_Yfm_El-45" style="edgeStyle=orthogonalEdgeStyle;rounded=0;orthogonalLoop=1;jettySize=auto;html=1;entryX=0.5;entryY=0;entryDx=0;entryDy=0;endArrow=ERzeroToMany;endFill=0;strokeColor=default;" parent="1" source="dat1O9weuYubN_Yfm_El-44" target="l4TOCZvBJScHaWaNTjH9-16" edge="1">
          <mxGeometry relative="1" as="geometry">
            <mxPoint x="-277" y="640" as="targetPoint" />
          </mxGeometry>
        </mxCell>
        <mxCell id="dat1O9weuYubN_Yfm_El-44" value="creates" style="shape=rhombus;perimeter=rhombusPerimeter;whiteSpace=wrap;html=1;align=center;strokeColor=default;" parent="1" vertex="1">
          <mxGeometry x="-337" y="545" width="120" height="60" as="geometry" />
        </mxCell>
        <mxCell id="dat1O9weuYubN_Yfm_El-55" style="edgeStyle=orthogonalEdgeStyle;rounded=0;orthogonalLoop=1;jettySize=auto;html=1;entryX=1;entryY=0.25;entryDx=0;entryDy=0;exitX=0.5;exitY=1;exitDx=0;exitDy=0;endArrow=none;endFill=0;strokeColor=default;" parent="1" source="dat1O9weuYubN_Yfm_El-54" target="dat1O9weuYubN_Yfm_El-63" edge="1">
          <mxGeometry relative="1" as="geometry">
            <mxPoint x="-229.00000000000023" y="262.5" as="targetPoint" />
            <Array as="points">
              <mxPoint x="-527" y="175" />
              <mxPoint x="-527" y="245" />
            </Array>
          </mxGeometry>
        </mxCell>
        <mxCell id="dat1O9weuYubN_Yfm_El-54" value="id" style="ellipse;whiteSpace=wrap;html=1;align=center;fontStyle=4;strokeColor=default;" parent="1" vertex="1">
          <mxGeometry x="-577" y="125" width="100" height="40" as="geometry" />
        </mxCell>
        <mxCell id="dat1O9weuYubN_Yfm_El-57" style="edgeStyle=orthogonalEdgeStyle;rounded=0;orthogonalLoop=1;jettySize=auto;html=1;exitX=0.5;exitY=1;exitDx=0;exitDy=0;endArrow=none;endFill=0;entryX=1;entryY=0.5;entryDx=0;entryDy=0;strokeColor=default;" parent="1" source="dat1O9weuYubN_Yfm_El-56" target="dat1O9weuYubN_Yfm_El-63" edge="1">
          <mxGeometry relative="1" as="geometry">
            <mxPoint x="-307" y="255" as="targetPoint" />
            <Array as="points">
              <mxPoint x="-377" y="240" />
            </Array>
          </mxGeometry>
        </mxCell>
        <mxCell id="dat1O9weuYubN_Yfm_El-56" value="&lt;div&gt;name&lt;/div&gt;" style="ellipse;whiteSpace=wrap;html=1;align=center;strokeColor=default;" parent="1" vertex="1">
          <mxGeometry x="-427" y="125" width="100" height="40" as="geometry" />
        </mxCell>
        <mxCell id="dat1O9weuYubN_Yfm_El-59" style="edgeStyle=orthogonalEdgeStyle;rounded=0;orthogonalLoop=1;jettySize=auto;html=1;entryX=0;entryY=0.5;entryDx=0;entryDy=0;endArrow=none;endFill=0;strokeColor=default;" parent="1" source="dat1O9weuYubN_Yfm_El-58" target="dat1O9weuYubN_Yfm_El-56" edge="1">
          <mxGeometry relative="1" as="geometry" />
        </mxCell>
        <mxCell id="dat1O9weuYubN_Yfm_El-58" value="f_name" style="ellipse;whiteSpace=wrap;html=1;align=center;strokeColor=default;" parent="1" vertex="1">
          <mxGeometry x="-517" y="50" width="100" height="40" as="geometry" />
        </mxCell>
        <mxCell id="dat1O9weuYubN_Yfm_El-61" style="edgeStyle=orthogonalEdgeStyle;rounded=0;orthogonalLoop=1;jettySize=auto;html=1;entryX=1;entryY=0.5;entryDx=0;entryDy=0;endArrow=none;endFill=0;strokeColor=default;" parent="1" source="dat1O9weuYubN_Yfm_El-60" target="dat1O9weuYubN_Yfm_El-56" edge="1">
          <mxGeometry relative="1" as="geometry">
            <Array as="points">
              <mxPoint x="-297" y="145" />
            </Array>
          </mxGeometry>
        </mxCell>
        <mxCell id="dat1O9weuYubN_Yfm_El-60" value="l_name" style="ellipse;whiteSpace=wrap;html=1;align=center;strokeColor=default;" parent="1" vertex="1">
          <mxGeometry x="-347" y="50" width="100" height="40" as="geometry" />
        </mxCell>
        <mxCell id="dat1O9weuYubN_Yfm_El-78" style="edgeStyle=orthogonalEdgeStyle;rounded=0;orthogonalLoop=1;jettySize=auto;html=1;exitX=1;exitY=0.75;exitDx=0;exitDy=0;endArrow=none;endFill=0;strokeColor=default;" parent="1" source="dat1O9weuYubN_Yfm_El-63" target="dat1O9weuYubN_Yfm_El-79" edge="1">
          <mxGeometry relative="1" as="geometry">
            <mxPoint x="-327" y="265.12121212121224" as="targetPoint" />
          </mxGeometry>
        </mxCell>
        <mxCell id="dat1O9weuYubN_Yfm_El-63" value="non-admin" style="whiteSpace=wrap;html=1;align=center;strokeColor=default;" parent="1" vertex="1">
          <mxGeometry x="-647" y="219.9999999999999" width="100" height="40" as="geometry" />
        </mxCell>
        <mxCell id="dat1O9weuYubN_Yfm_El-80" style="edgeStyle=orthogonalEdgeStyle;rounded=0;orthogonalLoop=1;jettySize=auto;html=1;entryX=0.5;entryY=1;entryDx=0;entryDy=0;shape=link;strokeColor=default;" parent="1" source="dat1O9weuYubN_Yfm_El-65" target="dat1O9weuYubN_Yfm_El-63" edge="1">
          <mxGeometry relative="1" as="geometry" />
        </mxCell>
        <mxCell id="dat1O9weuYubN_Yfm_El-65" value="D" style="ellipse;whiteSpace=wrap;html=1;aspect=fixed;strokeColor=default;" parent="1" vertex="1">
          <mxGeometry x="-607" y="305" width="20" height="20" as="geometry" />
        </mxCell>
        <mxCell id="dat1O9weuYubN_Yfm_El-70" value="" style="shape=requiredInterface;html=1;verticalLabelPosition=bottom;sketch=0;rotation=-180;strokeColor=default;" parent="1" vertex="1">
          <mxGeometry x="-837" y="175" width="20" height="20" as="geometry" />
        </mxCell>
        <mxCell id="dat1O9weuYubN_Yfm_El-71" value="" style="shape=requiredInterface;html=1;verticalLabelPosition=bottom;sketch=0;rotation=90;strokeColor=default;" parent="1" vertex="1">
          <mxGeometry x="-607" y="195" width="20" height="20" as="geometry" />
        </mxCell>
        <mxCell id="dat1O9weuYubN_Yfm_El-74" value="&lt;div&gt;username&lt;/div&gt;" style="ellipse;whiteSpace=wrap;html=1;align=center;fontStyle=4;strokeColor=default;" parent="1" vertex="1">
          <mxGeometry x="-837" y="35" width="100" height="40" as="geometry" />
        </mxCell>
        <mxCell id="dat1O9weuYubN_Yfm_El-75" value="&lt;div&gt;password&lt;/div&gt;" style="ellipse;whiteSpace=wrap;html=1;align=center;strokeColor=default;" parent="1" vertex="1">
          <mxGeometry x="-709" y="10" width="100" height="40" as="geometry" />
        </mxCell>
        <mxCell id="dat1O9weuYubN_Yfm_El-79" value="email" style="ellipse;whiteSpace=wrap;html=1;align=center;strokeColor=default;" parent="1" vertex="1">
          <mxGeometry x="-327" y="230.00121212121223" width="100" height="40" as="geometry" />
        </mxCell>
        <mxCell id="dat1O9weuYubN_Yfm_El-81" value="GPA" style="ellipse;whiteSpace=wrap;html=1;align=center;strokeColor=default;" parent="1" vertex="1">
          <mxGeometry x="-1175.5" y="325" width="100" height="40" as="geometry" />
        </mxCell>
        <mxCell id="dat1O9weuYubN_Yfm_El-82" style="edgeStyle=orthogonalEdgeStyle;rounded=0;orthogonalLoop=1;jettySize=auto;html=1;strokeColor=default;endArrow=none;endFill=0;entryX=0.038;entryY=0.001;entryDx=0;entryDy=0;entryPerimeter=0;" parent="1" source="dat1O9weuYubN_Yfm_El-81" target="XW_Ym_8bZxLRkyebTSH3-1" edge="1">
          <mxGeometry relative="1" as="geometry">
            <mxPoint x="-1010" y="470" as="targetPoint" />
          </mxGeometry>
        </mxCell>
        <mxCell id="dat1O9weuYubN_Yfm_El-83" value="&lt;div&gt;faculty&lt;/div&gt;" style="ellipse;whiteSpace=wrap;html=1;align=center;strokeColor=default;" parent="1" vertex="1">
          <mxGeometry x="-1146" y="282.5" width="100" height="40" as="geometry" />
        </mxCell>
        <mxCell id="dat1O9weuYubN_Yfm_El-84" style="edgeStyle=orthogonalEdgeStyle;rounded=0;orthogonalLoop=1;jettySize=auto;html=1;entryX=0.109;entryY=0.001;entryDx=0;entryDy=0;entryPerimeter=0;strokeColor=default;endArrow=none;endFill=0;" parent="1" source="dat1O9weuYubN_Yfm_El-83" target="XW_Ym_8bZxLRkyebTSH3-1" edge="1">
          <mxGeometry relative="1" as="geometry" />
        </mxCell>
        <mxCell id="dat1O9weuYubN_Yfm_El-85" value="major" style="ellipse;whiteSpace=wrap;html=1;align=center;strokeColor=default;" parent="1" vertex="1">
          <mxGeometry x="-1107" y="242.5" width="100" height="40" as="geometry" />
        </mxCell>
        <mxCell id="dat1O9weuYubN_Yfm_El-86" style="edgeStyle=orthogonalEdgeStyle;rounded=0;orthogonalLoop=1;jettySize=auto;html=1;entryX=0.191;entryY=0.001;entryDx=0;entryDy=0;entryPerimeter=0;strokeColor=default;endArrow=none;endFill=0;" parent="1" source="dat1O9weuYubN_Yfm_El-85" target="XW_Ym_8bZxLRkyebTSH3-1" edge="1">
          <mxGeometry relative="1" as="geometry">
            <Array as="points">
              <mxPoint x="-970" y="263" />
            </Array>
          </mxGeometry>
        </mxCell>
        <mxCell id="dat1O9weuYubN_Yfm_El-87" value="acquired_hrs" style="ellipse;whiteSpace=wrap;html=1;align=center;strokeColor=default;" parent="1" vertex="1">
          <mxGeometry x="-1077" y="202.5" width="100" height="40" as="geometry" />
        </mxCell>
        <mxCell id="dat1O9weuYubN_Yfm_El-88" style="edgeStyle=orthogonalEdgeStyle;rounded=0;orthogonalLoop=1;jettySize=auto;html=1;entryX=0.264;entryY=0.005;entryDx=0;entryDy=0;entryPerimeter=0;strokeColor=default;endArrow=none;endFill=0;" parent="1" source="dat1O9weuYubN_Yfm_El-87" target="XW_Ym_8bZxLRkyebTSH3-1" edge="1">
          <mxGeometry relative="1" as="geometry">
            <Array as="points">
              <mxPoint x="-951" y="223" />
            </Array>
          </mxGeometry>
        </mxCell>
        <mxCell id="dat1O9weuYubN_Yfm_El-89" value="assigned_hrs" style="ellipse;whiteSpace=wrap;html=1;align=center;strokeColor=default;" parent="1" vertex="1">
          <mxGeometry x="-1046" y="162.5" width="100" height="40" as="geometry" />
        </mxCell>
        <mxCell id="dat1O9weuYubN_Yfm_El-91" style="edgeStyle=orthogonalEdgeStyle;rounded=0;orthogonalLoop=1;jettySize=auto;html=1;entryX=0.339;entryY=0.001;entryDx=0;entryDy=0;entryPerimeter=0;strokeColor=default;endArrow=none;endFill=0;" parent="1" source="dat1O9weuYubN_Yfm_El-89" target="XW_Ym_8bZxLRkyebTSH3-1" edge="1">
          <mxGeometry relative="1" as="geometry">
            <Array as="points">
              <mxPoint x="-932" y="183" />
            </Array>
          </mxGeometry>
        </mxCell>
        <mxCell id="dat1O9weuYubN_Yfm_El-93" style="edgeStyle=orthogonalEdgeStyle;rounded=0;orthogonalLoop=1;jettySize=auto;html=1;entryX=0.75;entryY=0;entryDx=0;entryDy=0;strokeColor=default;endArrow=none;endFill=0;" parent="1" source="dat1O9weuYubN_Yfm_El-92" target="XW_Ym_8bZxLRkyebTSH3-1" edge="1">
          <mxGeometry relative="1" as="geometry">
            <Array as="points">
              <mxPoint x="-824" y="330" />
            </Array>
          </mxGeometry>
        </mxCell>
        <mxCell id="dat1O9weuYubN_Yfm_El-92" value="status" style="ellipse;whiteSpace=wrap;html=1;align=center;strokeColor=default;" parent="1" vertex="1">
          <mxGeometry x="-799" y="310" width="100" height="40" as="geometry" />
        </mxCell>
        <mxCell id="dat1O9weuYubN_Yfm_El-94" value="sem" style="ellipse;whiteSpace=wrap;html=1;align=center;strokeColor=default;" parent="1" vertex="1">
          <mxGeometry x="-817" y="270" width="100" height="40" as="geometry" />
        </mxCell>
        <mxCell id="dat1O9weuYubN_Yfm_El-95" style="edgeStyle=orthogonalEdgeStyle;rounded=0;orthogonalLoop=1;jettySize=auto;html=1;entryX=0.683;entryY=0.046;entryDx=0;entryDy=0;entryPerimeter=0;strokeColor=default;endArrow=none;endFill=0;" parent="1" source="dat1O9weuYubN_Yfm_El-94" target="XW_Ym_8bZxLRkyebTSH3-1" edge="1">
          <mxGeometry relative="1" as="geometry">
            <Array as="points">
              <mxPoint x="-842" y="290" />
            </Array>
          </mxGeometry>
        </mxCell>
        <mxCell id="dat1O9weuYubN_Yfm_El-98" style="edgeStyle=orthogonalEdgeStyle;rounded=0;orthogonalLoop=1;jettySize=auto;html=1;entryX=0.5;entryY=0;entryDx=0;entryDy=0;strokeColor=default;endArrow=none;endFill=0;" parent="1" source="dat1O9weuYubN_Yfm_El-96" target="XW_Ym_8bZxLRkyebTSH3-1" edge="1">
          <mxGeometry relative="1" as="geometry">
            <Array as="points">
              <mxPoint x="-890" y="250" />
              <mxPoint x="-890" y="370" />
            </Array>
          </mxGeometry>
        </mxCell>
        <mxCell id="dat1O9weuYubN_Yfm_El-96" value="mobile_no" style="ellipse;shape=doubleEllipse;margin=3;whiteSpace=wrap;html=1;align=center;strokeColor=default;" parent="1" vertex="1">
          <mxGeometry x="-849" y="230" width="100" height="40" as="geometry" />
        </mxCell>
        <mxCell id="dat1O9weuYubN_Yfm_El-104" style="edgeStyle=orthogonalEdgeStyle;rounded=0;orthogonalLoop=1;jettySize=auto;html=1;entryX=1;entryY=0.5;entryDx=0;entryDy=0;strokeColor=default;endArrow=none;endFill=0;" parent="1" source="dat1O9weuYubN_Yfm_El-103" target="XW_Ym_8bZxLRkyebTSH3-3" edge="1">
          <mxGeometry relative="1" as="geometry">
            <Array as="points">
              <mxPoint x="-210" y="490" />
            </Array>
          </mxGeometry>
        </mxCell>
        <mxCell id="dat1O9weuYubN_Yfm_El-103" value="office_loc" style="ellipse;whiteSpace=wrap;html=1;align=center;strokeColor=default;" parent="1" vertex="1">
          <mxGeometry x="-260" y="420" width="100" height="40" as="geometry" />
        </mxCell>
        <mxCell id="dat1O9weuYubN_Yfm_El-106" style="edgeStyle=orthogonalEdgeStyle;rounded=0;orthogonalLoop=1;jettySize=auto;html=1;exitX=0.5;exitY=1;exitDx=0;exitDy=0;endArrow=none;endFill=0;entryX=0.5;entryY=0;entryDx=0;entryDy=0;strokeColor=default;" parent="1" source="dat1O9weuYubN_Yfm_El-107" target="XW_Ym_8bZxLRkyebTSH3-5" edge="1">
          <mxGeometry relative="1" as="geometry">
            <mxPoint x="-1440" y="365" as="targetPoint" />
            <Array as="points">
              <mxPoint x="-1270" y="365" />
              <mxPoint x="-1329" y="365" />
            </Array>
          </mxGeometry>
        </mxCell>
        <mxCell id="dat1O9weuYubN_Yfm_El-107" value="&lt;div&gt;name&lt;/div&gt;" style="ellipse;whiteSpace=wrap;html=1;align=center;strokeColor=default;" parent="1" vertex="1">
          <mxGeometry x="-1320" y="250" width="100" height="40" as="geometry" />
        </mxCell>
        <mxCell id="dat1O9weuYubN_Yfm_El-108" style="edgeStyle=orthogonalEdgeStyle;rounded=0;orthogonalLoop=1;jettySize=auto;html=1;entryX=0;entryY=0.5;entryDx=0;entryDy=0;endArrow=none;endFill=0;strokeColor=default;" parent="1" source="dat1O9weuYubN_Yfm_El-109" target="dat1O9weuYubN_Yfm_El-107" edge="1">
          <mxGeometry relative="1" as="geometry" />
        </mxCell>
        <mxCell id="dat1O9weuYubN_Yfm_El-109" value="f_name" style="ellipse;whiteSpace=wrap;html=1;align=center;strokeColor=default;" parent="1" vertex="1">
          <mxGeometry x="-1410" y="175" width="100" height="40" as="geometry" />
        </mxCell>
        <mxCell id="dat1O9weuYubN_Yfm_El-110" style="edgeStyle=orthogonalEdgeStyle;rounded=0;orthogonalLoop=1;jettySize=auto;html=1;entryX=1;entryY=0.5;entryDx=0;entryDy=0;endArrow=none;endFill=0;strokeColor=default;" parent="1" source="dat1O9weuYubN_Yfm_El-111" target="dat1O9weuYubN_Yfm_El-107" edge="1">
          <mxGeometry relative="1" as="geometry">
            <Array as="points">
              <mxPoint x="-1190" y="270" />
            </Array>
          </mxGeometry>
        </mxCell>
        <mxCell id="dat1O9weuYubN_Yfm_El-111" value="l_name" style="ellipse;whiteSpace=wrap;html=1;align=center;strokeColor=default;" parent="1" vertex="1">
          <mxGeometry x="-1240" y="175" width="100" height="40" as="geometry" />
        </mxCell>
        <mxCell id="dat1O9weuYubN_Yfm_El-112" style="edgeStyle=orthogonalEdgeStyle;rounded=0;orthogonalLoop=1;jettySize=auto;html=1;exitX=0.75;exitY=0;exitDx=0;exitDy=0;endArrow=none;endFill=0;strokeColor=default;" parent="1" source="XW_Ym_8bZxLRkyebTSH3-5" target="dat1O9weuYubN_Yfm_El-113" edge="1">
          <mxGeometry relative="1" as="geometry">
            <mxPoint x="-1220" y="390.12121212121224" as="targetPoint" />
            <mxPoint x="-1440" y="375" as="sourcePoint" />
            <Array as="points">
              <mxPoint x="-1304" y="390" />
            </Array>
          </mxGeometry>
        </mxCell>
        <mxCell id="dat1O9weuYubN_Yfm_El-113" value="email" style="ellipse;whiteSpace=wrap;html=1;align=center;strokeColor=default;" parent="1" vertex="1">
          <mxGeometry x="-1270" y="300.00121212121223" width="100" height="40" as="geometry" />
        </mxCell>
        <mxCell id="dat1O9weuYubN_Yfm_El-114" value="&lt;div&gt;faculty&lt;/div&gt;" style="ellipse;whiteSpace=wrap;html=1;align=center;strokeColor=default;" parent="1" vertex="1">
          <mxGeometry x="-1489" y="285" width="100" height="40" as="geometry" />
        </mxCell>
        <mxCell id="dat1O9weuYubN_Yfm_El-115" style="edgeStyle=orthogonalEdgeStyle;rounded=0;orthogonalLoop=1;jettySize=auto;html=1;entryX=0.25;entryY=0;entryDx=0;entryDy=0;endArrow=none;endFill=0;strokeColor=default;" parent="1" source="dat1O9weuYubN_Yfm_El-114" target="XW_Ym_8bZxLRkyebTSH3-5" edge="1">
          <mxGeometry relative="1" as="geometry">
            <mxPoint x="-1447.52" y="404.00000000000006" as="targetPoint" />
            <Array as="points">
              <mxPoint x="-1439" y="380" />
              <mxPoint x="-1354" y="380" />
            </Array>
          </mxGeometry>
        </mxCell>
        <mxCell id="dat1O9weuYubN_Yfm_El-116" style="edgeStyle=orthogonalEdgeStyle;rounded=0;orthogonalLoop=1;jettySize=auto;html=1;entryX=0.343;entryY=0.013;entryDx=0;entryDy=0;entryPerimeter=0;endArrow=none;endFill=0;strokeColor=default;" parent="1" source="dat1O9weuYubN_Yfm_El-117" target="XW_Ym_8bZxLRkyebTSH3-5" edge="1">
          <mxGeometry relative="1" as="geometry">
            <mxPoint x="-1427" y="370.00000000000006" as="targetPoint" />
            <Array as="points">
              <mxPoint x="-1345" y="390" />
              <mxPoint x="-1345" y="390" />
            </Array>
          </mxGeometry>
        </mxCell>
        <mxCell id="dat1O9weuYubN_Yfm_El-117" value="office_loc" style="ellipse;whiteSpace=wrap;html=1;align=center;strokeColor=default;" parent="1" vertex="1">
          <mxGeometry x="-1389" y="305.00000000000006" width="100" height="40" as="geometry" />
        </mxCell>
        <mxCell id="dat1O9weuYubN_Yfm_El-121" style="edgeStyle=orthogonalEdgeStyle;rounded=0;orthogonalLoop=1;jettySize=auto;html=1;entryX=0.156;entryY=1.002;entryDx=0;entryDy=0;entryPerimeter=0;endArrow=none;endFill=0;strokeColor=default;" parent="1" source="dat1O9weuYubN_Yfm_El-120" target="XW_Ym_8bZxLRkyebTSH3-7" edge="1">
          <mxGeometry relative="1" as="geometry">
            <Array as="points">
              <mxPoint x="-1510" y="700" />
              <mxPoint x="-1353" y="700" />
            </Array>
          </mxGeometry>
        </mxCell>
        <mxCell id="dat1O9weuYubN_Yfm_El-120" value="cid" style="ellipse;whiteSpace=wrap;html=1;align=center;fontStyle=4;strokeColor=default;" parent="1" vertex="1">
          <mxGeometry x="-1560" y="720" width="100" height="40" as="geometry" />
        </mxCell>
        <mxCell id="dat1O9weuYubN_Yfm_El-124" value="major" style="ellipse;whiteSpace=wrap;html=1;align=center;strokeColor=default;" parent="1" vertex="1">
          <mxGeometry x="-1560" y="770" width="100" height="40" as="geometry" />
        </mxCell>
        <mxCell id="dat1O9weuYubN_Yfm_El-125" style="edgeStyle=orthogonalEdgeStyle;rounded=0;orthogonalLoop=1;jettySize=auto;html=1;entryX=0.349;entryY=1;entryDx=0;entryDy=0;entryPerimeter=0;endArrow=none;endFill=0;strokeColor=default;" parent="1" source="dat1O9weuYubN_Yfm_El-124" target="XW_Ym_8bZxLRkyebTSH3-7" edge="1">
          <mxGeometry relative="1" as="geometry">
            <Array as="points">
              <mxPoint x="-1440" y="790" />
              <mxPoint x="-1440" y="720" />
              <mxPoint x="-1320" y="720" />
            </Array>
          </mxGeometry>
        </mxCell>
        <mxCell id="dat1O9weuYubN_Yfm_El-126" value="name" style="ellipse;whiteSpace=wrap;html=1;align=center;strokeColor=default;" parent="1" vertex="1">
          <mxGeometry x="-1560" y="840" width="100" height="40" as="geometry" />
        </mxCell>
        <mxCell id="dat1O9weuYubN_Yfm_El-127" style="edgeStyle=orthogonalEdgeStyle;rounded=0;orthogonalLoop=1;jettySize=auto;html=1;entryX=0.651;entryY=1.069;entryDx=0;entryDy=0;entryPerimeter=0;exitX=1;exitY=0.5;exitDx=0;exitDy=0;endArrow=none;endFill=0;strokeColor=default;" parent="1" source="dat1O9weuYubN_Yfm_El-126" edge="1">
          <mxGeometry relative="1" as="geometry">
            <mxPoint x="-1389" y="857.24" as="sourcePoint" />
            <mxPoint x="-1297.9809999999998" y="680" as="targetPoint" />
            <Array as="points">
              <mxPoint x="-1410" y="860" />
              <mxPoint x="-1410" y="740" />
              <mxPoint x="-1298" y="740" />
            </Array>
          </mxGeometry>
        </mxCell>
        <mxCell id="dat1O9weuYubN_Yfm_El-128" value="cred_hrs" style="ellipse;whiteSpace=wrap;html=1;align=center;strokeColor=default;" parent="1" vertex="1">
          <mxGeometry x="-1537" y="890" width="100" height="40" as="geometry" />
        </mxCell>
        <mxCell id="dat1O9weuYubN_Yfm_El-129" style="edgeStyle=orthogonalEdgeStyle;rounded=0;orthogonalLoop=1;jettySize=auto;html=1;entryX=0.615;entryY=1.002;entryDx=0;entryDy=0;entryPerimeter=0;endArrow=none;endFill=0;strokeColor=default;" parent="1" source="dat1O9weuYubN_Yfm_El-128" target="XW_Ym_8bZxLRkyebTSH3-7" edge="1">
          <mxGeometry relative="1" as="geometry">
            <Array as="points">
              <mxPoint x="-1390" y="910" />
              <mxPoint x="-1390" y="780" />
              <mxPoint x="-1275" y="780" />
            </Array>
          </mxGeometry>
        </mxCell>
        <mxCell id="dat1O9weuYubN_Yfm_El-130" value="is_offered" style="ellipse;whiteSpace=wrap;html=1;align=center;strokeColor=default;" parent="1" vertex="1">
          <mxGeometry x="-1560" y="950" width="100" height="40" as="geometry" />
        </mxCell>
        <mxCell id="dat1O9weuYubN_Yfm_El-131" style="edgeStyle=orthogonalEdgeStyle;rounded=0;orthogonalLoop=1;jettySize=auto;html=1;entryX=0.75;entryY=1;entryDx=0;entryDy=0;endArrow=none;endFill=0;strokeColor=default;" parent="1" source="dat1O9weuYubN_Yfm_El-130" target="XW_Ym_8bZxLRkyebTSH3-7" edge="1">
          <mxGeometry relative="1" as="geometry">
            <Array as="points">
              <mxPoint x="-1370" y="970" />
              <mxPoint x="-1370" y="800" />
              <mxPoint x="-1252" y="800" />
            </Array>
          </mxGeometry>
        </mxCell>
        <mxCell id="dat1O9weuYubN_Yfm_El-132" value="sem" style="ellipse;whiteSpace=wrap;html=1;align=center;strokeColor=default;" parent="1" vertex="1">
          <mxGeometry x="-1460" y="977" width="100" height="40" as="geometry" />
        </mxCell>
        <mxCell id="dat1O9weuYubN_Yfm_El-133" style="edgeStyle=orthogonalEdgeStyle;rounded=0;orthogonalLoop=1;jettySize=auto;html=1;entryX=0.865;entryY=1.002;entryDx=0;entryDy=0;entryPerimeter=0;endArrow=none;endFill=0;strokeColor=default;" parent="1" source="dat1O9weuYubN_Yfm_El-132" target="XW_Ym_8bZxLRkyebTSH3-7" edge="1">
          <mxGeometry relative="1" as="geometry">
            <Array as="points">
              <mxPoint x="-1330" y="997" />
              <mxPoint x="-1330" y="828" />
              <mxPoint x="-1233" y="828" />
            </Array>
          </mxGeometry>
        </mxCell>
        <mxCell id="dat1O9weuYubN_Yfm_El-135" style="edgeStyle=orthogonalEdgeStyle;rounded=0;orthogonalLoop=1;jettySize=auto;html=1;entryX=0;entryY=0.25;entryDx=0;entryDy=0;exitX=0.5;exitY=0;exitDx=0;exitDy=0;strokeColor=default;endArrow=none;endFill=0;" parent="1" source="dat1O9weuYubN_Yfm_El-134" target="XW_Ym_8bZxLRkyebTSH3-9" edge="1">
          <mxGeometry relative="1" as="geometry" />
        </mxCell>
        <mxCell id="dat1O9weuYubN_Yfm_El-134" value="&lt;u&gt;sem_code&lt;/u&gt;" style="ellipse;whiteSpace=wrap;html=1;align=center;strokeColor=default;" parent="1" vertex="1">
          <mxGeometry x="-1070" y="740" width="100" height="40" as="geometry" />
        </mxCell>
        <mxCell id="dat1O9weuYubN_Yfm_El-136" value="start_date" style="ellipse;whiteSpace=wrap;html=1;align=center;strokeColor=default;" parent="1" vertex="1">
          <mxGeometry x="-1060" y="790" width="100" height="40" as="geometry" />
        </mxCell>
        <mxCell id="dat1O9weuYubN_Yfm_El-141" style="edgeStyle=orthogonalEdgeStyle;rounded=0;orthogonalLoop=1;jettySize=auto;html=1;strokeColor=default;endArrow=none;endFill=0;entryX=0.278;entryY=1.006;entryDx=0;entryDy=0;entryPerimeter=0;" parent="1" source="dat1O9weuYubN_Yfm_El-137" target="XW_Ym_8bZxLRkyebTSH3-9" edge="1">
          <mxGeometry relative="1" as="geometry">
            <mxPoint x="-921" y="683.3333333333333" as="targetPoint" />
            <Array as="points">
              <mxPoint x="-920" y="860" />
              <mxPoint x="-920" y="680" />
            </Array>
          </mxGeometry>
        </mxCell>
        <mxCell id="dat1O9weuYubN_Yfm_El-137" value="end_date" style="ellipse;whiteSpace=wrap;html=1;align=center;strokeColor=default;" parent="1" vertex="1">
          <mxGeometry x="-1049" y="840" width="100" height="40" as="geometry" />
        </mxCell>
        <mxCell id="dat1O9weuYubN_Yfm_El-142" style="edgeStyle=orthogonalEdgeStyle;rounded=0;orthogonalLoop=1;jettySize=auto;html=1;strokeColor=default;endArrow=none;endFill=0;entryX=0.428;entryY=1.01;entryDx=0;entryDy=0;entryPerimeter=0;" parent="1" source="dat1O9weuYubN_Yfm_El-138" target="XW_Ym_8bZxLRkyebTSH3-9" edge="1">
          <mxGeometry relative="1" as="geometry">
            <mxPoint x="-906.3333333333333" y="684.6666666666667" as="targetPoint" />
            <Array as="points">
              <mxPoint x="-906" y="910" />
            </Array>
          </mxGeometry>
        </mxCell>
        <mxCell id="dat1O9weuYubN_Yfm_El-138" value="optional" style="ellipse;whiteSpace=wrap;html=1;align=center;strokeColor=default;dashed=1;" parent="1" vertex="1">
          <mxGeometry x="-1039" y="890" width="100" height="40" as="geometry" />
        </mxCell>
        <mxCell id="dat1O9weuYubN_Yfm_El-143" style="edgeStyle=orthogonalEdgeStyle;rounded=0;orthogonalLoop=1;jettySize=auto;html=1;strokeColor=default;endArrow=none;endFill=0;entryX=0.591;entryY=1.01;entryDx=0;entryDy=0;entryPerimeter=0;" parent="1" source="dat1O9weuYubN_Yfm_El-139" target="XW_Ym_8bZxLRkyebTSH3-9" edge="1">
          <mxGeometry relative="1" as="geometry">
            <mxPoint x="-889.6666666666667" y="686" as="targetPoint" />
            <Array as="points">
              <mxPoint x="-890" y="960" />
            </Array>
          </mxGeometry>
        </mxCell>
        <mxCell id="dat1O9weuYubN_Yfm_El-139" value="even" style="ellipse;whiteSpace=wrap;html=1;align=center;strokeColor=default;dashed=1;" parent="1" vertex="1">
          <mxGeometry x="-1019" y="940" width="100" height="40" as="geometry" />
        </mxCell>
        <mxCell id="dat1O9weuYubN_Yfm_El-140" style="edgeStyle=orthogonalEdgeStyle;rounded=0;orthogonalLoop=1;jettySize=auto;html=1;entryX=0.097;entryY=0.998;entryDx=0;entryDy=0;entryPerimeter=0;strokeColor=default;endArrow=none;endFill=0;" parent="1" source="dat1O9weuYubN_Yfm_El-136" target="XW_Ym_8bZxLRkyebTSH3-9" edge="1">
          <mxGeometry relative="1" as="geometry" />
        </mxCell>
        <mxCell id="dat1O9weuYubN_Yfm_El-144" value="pid" style="ellipse;whiteSpace=wrap;html=1;align=center;fontStyle=4;strokeColor=default;" parent="1" vertex="1">
          <mxGeometry x="-799" y="840" width="100" height="40" as="geometry" />
        </mxCell>
        <mxCell id="dat1O9weuYubN_Yfm_El-145" style="edgeStyle=orthogonalEdgeStyle;rounded=0;orthogonalLoop=1;jettySize=auto;html=1;entryX=0.152;entryY=1;entryDx=0;entryDy=0;entryPerimeter=0;strokeColor=default;endArrow=none;endFill=0;" parent="1" source="dat1O9weuYubN_Yfm_El-144" target="XW_Ym_8bZxLRkyebTSH3-12" edge="1">
          <mxGeometry relative="1" as="geometry">
            <Array as="points">
              <mxPoint x="-672" y="860" />
              <mxPoint x="-672" y="785" />
              <mxPoint x="-672" y="785" />
            </Array>
          </mxGeometry>
        </mxCell>
        <mxCell id="dat1O9weuYubN_Yfm_El-148" style="edgeStyle=orthogonalEdgeStyle;rounded=0;orthogonalLoop=1;jettySize=auto;html=1;strokeColor=default;endArrow=none;endFill=0;entryX=0.286;entryY=1;entryDx=0;entryDy=0;entryPerimeter=0;exitX=1;exitY=0.5;exitDx=0;exitDy=0;" parent="1" source="dat1O9weuYubN_Yfm_El-147" target="XW_Ym_8bZxLRkyebTSH3-12" edge="1">
          <mxGeometry relative="1" as="geometry">
            <mxPoint x="-648.3333333333333" y="735.3333333333333" as="targetPoint" />
            <Array as="points">
              <mxPoint x="-650" y="910" />
              <mxPoint x="-650" y="730" />
            </Array>
          </mxGeometry>
        </mxCell>
        <mxCell id="dat1O9weuYubN_Yfm_El-147" value="amount" style="ellipse;whiteSpace=wrap;html=1;align=center;strokeColor=default;" parent="1" vertex="1">
          <mxGeometry x="-769" y="890" width="100" height="40" as="geometry" />
        </mxCell>
        <mxCell id="dat1O9weuYubN_Yfm_El-150" style="edgeStyle=orthogonalEdgeStyle;rounded=0;orthogonalLoop=1;jettySize=auto;html=1;strokeColor=default;endArrow=none;endFill=0;entryX=0.394;entryY=0.996;entryDx=0;entryDy=0;entryPerimeter=0;exitX=1;exitY=0.5;exitDx=0;exitDy=0;" parent="1" source="dat1O9weuYubN_Yfm_El-149" target="XW_Ym_8bZxLRkyebTSH3-12" edge="1">
          <mxGeometry relative="1" as="geometry">
            <mxPoint x="-628.3333333333333" y="735" as="targetPoint" />
            <Array as="points">
              <mxPoint x="-628" y="960" />
            </Array>
          </mxGeometry>
        </mxCell>
        <mxCell id="dat1O9weuYubN_Yfm_El-149" value="fund_perc" style="ellipse;whiteSpace=wrap;html=1;align=center;strokeColor=default;" parent="1" vertex="1">
          <mxGeometry x="-749" y="940" width="100" height="40" as="geometry" />
        </mxCell>
        <mxCell id="dat1O9weuYubN_Yfm_El-151" value="no_of_inst" style="ellipse;whiteSpace=wrap;html=1;align=center;strokeColor=default;" parent="1" vertex="1">
          <mxGeometry x="-720" y="990" width="100" height="40" as="geometry" />
        </mxCell>
        <mxCell id="dat1O9weuYubN_Yfm_El-152" style="edgeStyle=orthogonalEdgeStyle;rounded=0;orthogonalLoop=1;jettySize=auto;html=1;entryX=0.555;entryY=0.998;entryDx=0;entryDy=0;entryPerimeter=0;strokeColor=default;endArrow=none;endFill=0;" parent="1" source="dat1O9weuYubN_Yfm_El-151" target="XW_Ym_8bZxLRkyebTSH3-12" edge="1">
          <mxGeometry relative="1" as="geometry">
            <Array as="points">
              <mxPoint x="-600" y="1010" />
              <mxPoint x="-600" y="860" />
              <mxPoint x="-600" y="860" />
            </Array>
          </mxGeometry>
        </mxCell>
        <mxCell id="dat1O9weuYubN_Yfm_El-156" style="edgeStyle=orthogonalEdgeStyle;rounded=0;orthogonalLoop=1;jettySize=auto;html=1;strokeColor=default;endArrow=none;endFill=0;entryX=0.663;entryY=1.005;entryDx=0;entryDy=0;entryPerimeter=0;" parent="1" source="dat1O9weuYubN_Yfm_El-155" target="XW_Ym_8bZxLRkyebTSH3-12" edge="1">
          <mxGeometry relative="1" as="geometry">
            <mxPoint x="-580.3333333333333" y="734" as="targetPoint" />
            <Array as="points">
              <mxPoint x="-580" y="1060" />
              <mxPoint x="-580" y="885" />
              <mxPoint x="-580" y="885" />
            </Array>
          </mxGeometry>
        </mxCell>
        <mxCell id="dat1O9weuYubN_Yfm_El-155" value="deadline" style="ellipse;whiteSpace=wrap;html=1;align=center;strokeColor=default;" parent="1" vertex="1">
          <mxGeometry x="-699" y="1040" width="100" height="40" as="geometry" />
        </mxCell>
        <mxCell id="dat1O9weuYubN_Yfm_El-163" style="edgeStyle=orthogonalEdgeStyle;rounded=0;orthogonalLoop=1;jettySize=auto;html=1;entryX=0.25;entryY=1;entryDx=0;entryDy=0;strokeColor=default;endArrow=none;endFill=0;" parent="1" source="dat1O9weuYubN_Yfm_El-158" target="dat1O9weuYubN_Yfm_El-27" edge="1">
          <mxGeometry relative="1" as="geometry">
            <Array as="points">
              <mxPoint x="-405" y="950" />
            </Array>
          </mxGeometry>
        </mxCell>
        <mxCell id="dat1O9weuYubN_Yfm_El-158" value="date" style="ellipse;whiteSpace=wrap;html=1;align=center;strokeColor=default;" parent="1" vertex="1">
          <mxGeometry x="-547" y="930" width="100" height="40" as="geometry" />
        </mxCell>
        <mxCell id="dat1O9weuYubN_Yfm_El-164" style="edgeStyle=orthogonalEdgeStyle;rounded=0;orthogonalLoop=1;jettySize=auto;html=1;entryX=0.5;entryY=1;entryDx=0;entryDy=0;strokeColor=default;endArrow=none;endFill=0;exitX=1;exitY=0.5;exitDx=0;exitDy=0;" parent="1" source="dat1O9weuYubN_Yfm_El-159" target="dat1O9weuYubN_Yfm_El-27" edge="1">
          <mxGeometry relative="1" as="geometry" />
        </mxCell>
        <mxCell id="dat1O9weuYubN_Yfm_El-159" value="amount" style="ellipse;whiteSpace=wrap;html=1;align=center;strokeColor=default;" parent="1" vertex="1">
          <mxGeometry x="-537" y="977" width="100" height="40" as="geometry" />
        </mxCell>
        <mxCell id="dat1O9weuYubN_Yfm_El-166" style="edgeStyle=orthogonalEdgeStyle;rounded=0;orthogonalLoop=1;jettySize=auto;html=1;entryX=0.75;entryY=1;entryDx=0;entryDy=0;strokeColor=default;endArrow=none;endFill=0;exitX=1;exitY=0.5;exitDx=0;exitDy=0;" parent="1" source="dat1O9weuYubN_Yfm_El-160" target="dat1O9weuYubN_Yfm_El-27" edge="1">
          <mxGeometry relative="1" as="geometry">
            <Array as="points">
              <mxPoint x="-355" y="1043" />
            </Array>
          </mxGeometry>
        </mxCell>
        <mxCell id="dat1O9weuYubN_Yfm_El-160" value="status" style="ellipse;whiteSpace=wrap;html=1;align=center;strokeColor=default;" parent="1" vertex="1">
          <mxGeometry x="-527" y="1023" width="100" height="40" as="geometry" />
        </mxCell>
        <mxCell id="dat1O9weuYubN_Yfm_El-165" style="edgeStyle=orthogonalEdgeStyle;rounded=0;orthogonalLoop=1;jettySize=auto;html=1;entryX=0.907;entryY=1.009;entryDx=0;entryDy=0;entryPerimeter=0;strokeColor=default;endArrow=none;endFill=0;exitX=1;exitY=0.5;exitDx=0;exitDy=0;" parent="1" source="Vwcr2eOuwbWK2HyRA7sR-11" target="dat1O9weuYubN_Yfm_El-27" edge="1">
          <mxGeometry relative="1" as="geometry">
            <mxPoint x="-340" y="940" as="targetPoint" />
            <Array as="points">
              <mxPoint x="-339" y="1093" />
            </Array>
            <mxPoint x="-420.0000000000073" y="1093" as="sourcePoint" />
          </mxGeometry>
        </mxCell>
        <mxCell id="dat1O9weuYubN_Yfm_El-170" style="edgeStyle=orthogonalEdgeStyle;rounded=0;orthogonalLoop=1;jettySize=auto;html=1;entryX=0;entryY=0.5;entryDx=0;entryDy=0;exitX=1;exitY=0.5;exitDx=0;exitDy=0;strokeColor=default;endArrow=none;endFill=0;" parent="1" source="dat1O9weuYubN_Yfm_El-171" target="Vwcr2eOuwbWK2HyRA7sR-3" edge="1">
          <mxGeometry relative="1" as="geometry">
            <mxPoint x="-1495.5" y="1045.5" as="sourcePoint" />
            <Array as="points">
              <mxPoint x="-1456" y="1066" />
              <mxPoint x="-1456" y="1076" />
              <mxPoint x="-1417" y="1076" />
            </Array>
            <mxPoint x="-1435.5" y="1075.5" as="targetPoint" />
          </mxGeometry>
        </mxCell>
        <mxCell id="dat1O9weuYubN_Yfm_El-171" value="mid" style="ellipse;whiteSpace=wrap;html=1;align=center;strokeColor=default;fontStyle=4" parent="1" vertex="1">
          <mxGeometry x="-1634.5" y="1045.5" width="100" height="40" as="geometry" />
        </mxCell>
        <mxCell id="dat1O9weuYubN_Yfm_El-173" style="edgeStyle=orthogonalEdgeStyle;rounded=0;orthogonalLoop=1;jettySize=auto;html=1;entryX=0.154;entryY=0.998;entryDx=0;entryDy=0;strokeColor=default;endArrow=none;endFill=0;entryPerimeter=0;" parent="1" source="dat1O9weuYubN_Yfm_El-172" target="Vwcr2eOuwbWK2HyRA7sR-3" edge="1">
          <mxGeometry relative="1" as="geometry">
            <Array as="points">
              <mxPoint x="-1400" y="1116" />
              <mxPoint x="-1400" y="1094" />
            </Array>
            <mxPoint x="-1400.5" y="1095.5" as="targetPoint" />
          </mxGeometry>
        </mxCell>
        <mxCell id="dat1O9weuYubN_Yfm_El-172" value="date" style="ellipse;whiteSpace=wrap;html=1;align=center;strokeColor=default;" parent="1" vertex="1">
          <mxGeometry x="-1545.5" y="1094.5" width="100" height="40" as="geometry" />
        </mxCell>
        <mxCell id="dat1O9weuYubN_Yfm_El-175" style="edgeStyle=orthogonalEdgeStyle;rounded=0;orthogonalLoop=1;jettySize=auto;html=1;entryX=0.864;entryY=1.003;entryDx=0;entryDy=0;strokeColor=default;endArrow=none;endFill=0;entryPerimeter=0;" parent="1" source="dat1O9weuYubN_Yfm_El-174" target="Vwcr2eOuwbWK2HyRA7sR-3" edge="1">
          <mxGeometry relative="1" as="geometry">
            <Array as="points">
              <mxPoint x="-1331" y="1115" />
            </Array>
            <mxPoint x="-1330.5" y="1095.5" as="targetPoint" />
          </mxGeometry>
        </mxCell>
        <mxCell id="dat1O9weuYubN_Yfm_El-174" value="type" style="ellipse;whiteSpace=wrap;html=1;align=center;strokeColor=default;" parent="1" vertex="1">
          <mxGeometry x="-1285.5" y="1094.5" width="100" height="40" as="geometry" />
        </mxCell>
        <mxCell id="dat1O9weuYubN_Yfm_El-177" style="edgeStyle=orthogonalEdgeStyle;rounded=0;orthogonalLoop=1;jettySize=auto;html=1;entryX=0.25;entryY=0;entryDx=0;entryDy=0;endArrow=none;endFill=0;strokeColor=default;" parent="1" source="dat1O9weuYubN_Yfm_El-176" target="XW_Ym_8bZxLRkyebTSH3-10" edge="1">
          <mxGeometry relative="1" as="geometry">
            <Array as="points">
              <mxPoint x="-1597" y="500" />
              <mxPoint x="-1502" y="500" />
            </Array>
          </mxGeometry>
        </mxCell>
        <mxCell id="dat1O9weuYubN_Yfm_El-176" value="sid" style="ellipse;whiteSpace=wrap;html=1;align=center;fontStyle=0;strokeColor=default;" parent="1" vertex="1">
          <mxGeometry x="-1647" y="410" width="100" height="40" as="geometry" />
        </mxCell>
        <mxCell id="dat1O9weuYubN_Yfm_El-179" style="edgeStyle=orthogonalEdgeStyle;rounded=0;orthogonalLoop=1;jettySize=auto;html=1;entryX=0;entryY=0.25;entryDx=0;entryDy=0;endArrow=none;endFill=0;strokeColor=default;" parent="1" source="dat1O9weuYubN_Yfm_El-178" target="XW_Ym_8bZxLRkyebTSH3-10" edge="1">
          <mxGeometry relative="1" as="geometry">
            <Array as="points">
              <mxPoint x="-1597" y="550" />
            </Array>
          </mxGeometry>
        </mxCell>
        <mxCell id="dat1O9weuYubN_Yfm_El-178" value="day" style="ellipse;whiteSpace=wrap;html=1;align=center;fontStyle=4;strokeColor=default;" parent="1" vertex="1">
          <mxGeometry x="-1647" y="505" width="100" height="40" as="geometry" />
        </mxCell>
        <mxCell id="dat1O9weuYubN_Yfm_El-181" style="edgeStyle=orthogonalEdgeStyle;rounded=0;orthogonalLoop=1;jettySize=auto;html=1;entryX=0;entryY=0.75;entryDx=0;entryDy=0;endArrow=none;endFill=0;strokeColor=default;" parent="1" source="dat1O9weuYubN_Yfm_El-180" target="XW_Ym_8bZxLRkyebTSH3-10" edge="1">
          <mxGeometry relative="1" as="geometry">
            <Array as="points">
              <mxPoint x="-1597" y="570" />
            </Array>
          </mxGeometry>
        </mxCell>
        <mxCell id="dat1O9weuYubN_Yfm_El-180" value="time" style="ellipse;whiteSpace=wrap;html=1;align=center;fontStyle=4;strokeColor=default;" parent="1" vertex="1">
          <mxGeometry x="-1647" y="580" width="100" height="40" as="geometry" />
        </mxCell>
        <mxCell id="dat1O9weuYubN_Yfm_El-183" style="edgeStyle=orthogonalEdgeStyle;rounded=0;orthogonalLoop=1;jettySize=auto;html=1;entryX=0.25;entryY=1;entryDx=0;entryDy=0;endArrow=none;endFill=0;strokeColor=default;" parent="1" source="dat1O9weuYubN_Yfm_El-182" target="XW_Ym_8bZxLRkyebTSH3-10" edge="1">
          <mxGeometry relative="1" as="geometry">
            <Array as="points">
              <mxPoint x="-1597" y="630" />
              <mxPoint x="-1502" y="630" />
            </Array>
          </mxGeometry>
        </mxCell>
        <mxCell id="dat1O9weuYubN_Yfm_El-182" value="location" style="ellipse;whiteSpace=wrap;html=1;align=center;fontStyle=4;strokeColor=default;" parent="1" vertex="1">
          <mxGeometry x="-1647" y="650" width="100" height="40" as="geometry" />
        </mxCell>
        <mxCell id="dat1O9weuYubN_Yfm_El-184" value="cid" style="ellipse;shape=doubleEllipse;margin=3;whiteSpace=wrap;html=1;align=center;strokeColor=default;" parent="1" vertex="1">
          <mxGeometry x="-330" y="973" width="100" height="40" as="geometry" />
        </mxCell>
        <mxCell id="dat1O9weuYubN_Yfm_El-185" style="edgeStyle=orthogonalEdgeStyle;rounded=0;orthogonalLoop=1;jettySize=auto;html=1;entryX=0.162;entryY=1.006;entryDx=0;entryDy=0;entryPerimeter=0;strokeColor=default;endArrow=none;endFill=0;" parent="1" source="dat1O9weuYubN_Yfm_El-184" target="XW_Ym_8bZxLRkyebTSH3-15" edge="1">
          <mxGeometry relative="1" as="geometry" />
        </mxCell>
        <mxCell id="dat1O9weuYubN_Yfm_El-187" value="cred_hrs" style="ellipse;whiteSpace=wrap;html=1;align=center;strokeColor=default;" parent="1" vertex="1">
          <mxGeometry x="-320" y="1023" width="100" height="40" as="geometry" />
        </mxCell>
        <mxCell id="dat1O9weuYubN_Yfm_El-188" style="edgeStyle=orthogonalEdgeStyle;rounded=0;orthogonalLoop=1;jettySize=auto;html=1;entryX=0.345;entryY=0.999;entryDx=0;entryDy=0;entryPerimeter=0;strokeColor=default;endArrow=none;endFill=0;" parent="1" source="dat1O9weuYubN_Yfm_El-187" target="XW_Ym_8bZxLRkyebTSH3-15" edge="1">
          <mxGeometry relative="1" as="geometry" />
        </mxCell>
        <mxCell id="dat1O9weuYubN_Yfm_El-190" style="edgeStyle=orthogonalEdgeStyle;rounded=0;orthogonalLoop=1;jettySize=auto;html=1;strokeColor=default;endArrow=none;endFill=0;" parent="1" source="dat1O9weuYubN_Yfm_El-189" edge="1">
          <mxGeometry relative="1" as="geometry">
            <mxPoint x="-160" y="963" as="targetPoint" />
          </mxGeometry>
        </mxCell>
        <mxCell id="dat1O9weuYubN_Yfm_El-189" value="reqid" style="ellipse;whiteSpace=wrap;html=1;align=center;fontStyle=4;strokeColor=default;" parent="1" vertex="1">
          <mxGeometry x="-290" y="1073" width="100" height="40" as="geometry" />
        </mxCell>
        <mxCell id="dat1O9weuYubN_Yfm_El-191" value="status" style="ellipse;whiteSpace=wrap;html=1;align=center;strokeColor=default;" parent="1" vertex="1">
          <mxGeometry x="-130" y="1043" width="100" height="40" as="geometry" />
        </mxCell>
        <mxCell id="dat1O9weuYubN_Yfm_El-192" value="type" style="ellipse;whiteSpace=wrap;html=1;align=center;strokeColor=default;" parent="1" vertex="1">
          <mxGeometry x="-190" y="1103" width="100" height="40" as="geometry" />
        </mxCell>
        <mxCell id="dat1O9weuYubN_Yfm_El-193" style="edgeStyle=orthogonalEdgeStyle;rounded=0;orthogonalLoop=1;jettySize=auto;html=1;entryX=0.692;entryY=0.979;entryDx=0;entryDy=0;entryPerimeter=0;strokeColor=default;endArrow=none;endFill=0;" parent="1" source="dat1O9weuYubN_Yfm_El-192" target="XW_Ym_8bZxLRkyebTSH3-15" edge="1">
          <mxGeometry relative="1" as="geometry" />
        </mxCell>
        <mxCell id="dat1O9weuYubN_Yfm_El-194" style="edgeStyle=orthogonalEdgeStyle;rounded=0;orthogonalLoop=1;jettySize=auto;html=1;entryX=0.846;entryY=0.999;entryDx=0;entryDy=0;entryPerimeter=0;exitX=0.5;exitY=0;exitDx=0;exitDy=0;strokeColor=default;endArrow=none;endFill=0;" parent="1" source="dat1O9weuYubN_Yfm_El-191" target="XW_Ym_8bZxLRkyebTSH3-15" edge="1">
          <mxGeometry relative="1" as="geometry">
            <mxPoint x="-80" y="1023" as="sourcePoint" />
            <Array as="points">
              <mxPoint x="-80" y="1023" />
              <mxPoint x="-125" y="1023" />
            </Array>
          </mxGeometry>
        </mxCell>
        <mxCell id="dat1O9weuYubN_Yfm_El-197" style="edgeStyle=orthogonalEdgeStyle;rounded=0;orthogonalLoop=1;jettySize=auto;html=1;entryX=1;entryY=0.5;entryDx=0;entryDy=0;strokeColor=default;endArrow=none;endFill=0;" parent="1" source="dat1O9weuYubN_Yfm_El-196" target="XW_Ym_8bZxLRkyebTSH3-15" edge="1">
          <mxGeometry relative="1" as="geometry" />
        </mxCell>
        <mxCell id="dat1O9weuYubN_Yfm_El-196" value="comment" style="ellipse;whiteSpace=wrap;html=1;align=center;strokeColor=default;" parent="1" vertex="1">
          <mxGeometry x="-110" y="973" width="100" height="40" as="geometry" />
        </mxCell>
        <mxCell id="dat1O9weuYubN_Yfm_El-199" style="edgeStyle=orthogonalEdgeStyle;rounded=0;orthogonalLoop=1;jettySize=auto;html=1;entryX=0.159;entryY=1.001;entryDx=0;entryDy=0;entryPerimeter=0;strokeColor=default;endArrow=none;endFill=0;exitX=0.5;exitY=0;exitDx=0;exitDy=0;" parent="1" source="Vwcr2eOuwbWK2HyRA7sR-22" target="l4TOCZvBJScHaWaNTjH9-16" edge="1">
          <mxGeometry relative="1" as="geometry">
            <mxPoint x="-312" y="730" as="sourcePoint" />
            <mxPoint x="-311.9000000000001" y="680.3200000000002" as="targetPoint" />
            <Array as="points">
              <mxPoint x="-329" y="710" />
              <mxPoint x="-311" y="710" />
            </Array>
          </mxGeometry>
        </mxCell>
        <mxCell id="dat1O9weuYubN_Yfm_El-202" style="edgeStyle=orthogonalEdgeStyle;rounded=0;orthogonalLoop=1;jettySize=auto;html=1;entryX=0.576;entryY=0.996;entryDx=0;entryDy=0;strokeColor=default;endArrow=none;endFill=0;exitX=0.5;exitY=0;exitDx=0;exitDy=0;entryPerimeter=0;" parent="1" source="dat1O9weuYubN_Yfm_El-207" target="l4TOCZvBJScHaWaNTjH9-16" edge="1">
          <mxGeometry relative="1" as="geometry">
            <Array as="points">
              <mxPoint x="-160" y="770" />
              <mxPoint x="-220" y="770" />
              <mxPoint x="-220" y="721" />
              <mxPoint x="-270" y="721" />
              <mxPoint x="-270" y="680" />
            </Array>
            <mxPoint x="-220" y="721" as="sourcePoint" />
            <mxPoint x="-260" y="680" as="targetPoint" />
          </mxGeometry>
        </mxCell>
        <mxCell id="dat1O9weuYubN_Yfm_El-207" value="sem" style="ellipse;whiteSpace=wrap;html=1;align=center;strokeColor=default;fontStyle=4" parent="1" vertex="1">
          <mxGeometry x="-210" y="780" width="100" height="40" as="geometry" />
        </mxCell>
        <mxCell id="dat1O9weuYubN_Yfm_El-209" value="" style="shape=requiredInterface;html=1;verticalLabelPosition=bottom;sketch=0;rotation=-180;strokeColor=default;" parent="1" vertex="1">
          <mxGeometry x="-727" y="355" width="20" height="20" as="geometry" />
        </mxCell>
        <mxCell id="dat1O9weuYubN_Yfm_El-210" value="" style="shape=requiredInterface;html=1;verticalLabelPosition=bottom;sketch=0;rotation=0;strokeColor=default;" parent="1" vertex="1">
          <mxGeometry x="-427" y="355" width="20" height="20" as="geometry" />
        </mxCell>
        <mxCell id="Vwcr2eOuwbWK2HyRA7sR-2" value="offers" style="shape=rhombus;perimeter=rhombusPerimeter;whiteSpace=wrap;html=1;align=center;" parent="1" vertex="1">
          <mxGeometry x="-1310" y="880" width="120" height="60" as="geometry" />
        </mxCell>
        <mxCell id="Vwcr2eOuwbWK2HyRA7sR-9" style="edgeStyle=orthogonalEdgeStyle;rounded=0;orthogonalLoop=1;jettySize=auto;html=1;entryX=0;entryY=0.5;entryDx=0;entryDy=0;endArrow=none;endFill=0;startArrow=ERzeroToMany;startFill=0;" parent="1" source="Vwcr2eOuwbWK2HyRA7sR-3" target="Vwcr2eOuwbWK2HyRA7sR-7" edge="1">
          <mxGeometry relative="1" as="geometry">
            <mxPoint x="-1240" y="1050" as="targetPoint" />
          </mxGeometry>
        </mxCell>
        <mxCell id="Vwcr2eOuwbWK2HyRA7sR-3" value="make_up" style="whiteSpace=wrap;html=1;align=center;" parent="1" vertex="1">
          <mxGeometry x="-1417" y="1054.5" width="100" height="40" as="geometry" />
        </mxCell>
        <mxCell id="Vwcr2eOuwbWK2HyRA7sR-8" style="edgeStyle=orthogonalEdgeStyle;rounded=0;orthogonalLoop=1;jettySize=auto;html=1;entryX=0.25;entryY=1;entryDx=0;entryDy=0;endArrow=ERzeroToMany;endFill=0;exitX=0.5;exitY=0;exitDx=0;exitDy=0;" parent="1" source="Vwcr2eOuwbWK2HyRA7sR-7" target="XW_Ym_8bZxLRkyebTSH3-1" edge="1">
          <mxGeometry relative="1" as="geometry">
            <mxPoint x="-1125.5" y="630" as="targetPoint" />
            <Array as="points">
              <mxPoint x="-1080" y="730" />
              <mxPoint x="-1030" y="730" />
              <mxPoint x="-1030" y="630" />
              <mxPoint x="-955" y="630" />
            </Array>
          </mxGeometry>
        </mxCell>
        <mxCell id="Vwcr2eOuwbWK2HyRA7sR-7" value="sits" style="shape=rhombus;perimeter=rhombusPerimeter;whiteSpace=wrap;html=1;align=center;" parent="1" vertex="1">
          <mxGeometry x="-1140" y="1030" width="120" height="60" as="geometry" />
        </mxCell>
        <mxCell id="Vwcr2eOuwbWK2HyRA7sR-11" value="&lt;span style=&quot;border-bottom: 1px dotted&quot;&gt;deadline&lt;/span&gt;" style="ellipse;whiteSpace=wrap;html=1;align=center;" parent="1" vertex="1">
          <mxGeometry x="-520" y="1073" width="100" height="40" as="geometry" />
        </mxCell>
        <mxCell id="Vwcr2eOuwbWK2HyRA7sR-14" value="teaches" style="shape=rhombus;perimeter=rhombusPerimeter;whiteSpace=wrap;html=1;align=center;" parent="1" vertex="1">
          <mxGeometry x="-1390" y="510" width="80" height="40" as="geometry" />
        </mxCell>
        <mxCell id="Vwcr2eOuwbWK2HyRA7sR-15" style="edgeStyle=orthogonalEdgeStyle;rounded=0;orthogonalLoop=1;jettySize=auto;html=1;entryX=0.077;entryY=-0.005;entryDx=0;entryDy=0;entryPerimeter=0;endArrow=ERoneToMany;endFill=0;" parent="1" source="Vwcr2eOuwbWK2HyRA7sR-14" target="XW_Ym_8bZxLRkyebTSH3-7" edge="1">
          <mxGeometry relative="1" as="geometry" />
        </mxCell>
        <mxCell id="Vwcr2eOuwbWK2HyRA7sR-16" value="address" style="ellipse;whiteSpace=wrap;html=1;align=center;" parent="1" vertex="1">
          <mxGeometry x="-1027" y="117.5" width="100" height="40" as="geometry" />
        </mxCell>
        <mxCell id="Vwcr2eOuwbWK2HyRA7sR-17" style="edgeStyle=orthogonalEdgeStyle;rounded=0;orthogonalLoop=1;jettySize=auto;html=1;entryX=0.419;entryY=-0.009;entryDx=0;entryDy=0;entryPerimeter=0;endArrow=none;endFill=0;" parent="1" source="Vwcr2eOuwbWK2HyRA7sR-16" target="XW_Ym_8bZxLRkyebTSH3-1" edge="1">
          <mxGeometry relative="1" as="geometry">
            <Array as="points">
              <mxPoint x="-910" y="235" />
              <mxPoint x="-910" y="363" />
            </Array>
          </mxGeometry>
        </mxCell>
        <mxCell id="Vwcr2eOuwbWK2HyRA7sR-18" value="iid" style="ellipse;whiteSpace=wrap;html=1;align=center;strokeColor=default;fontStyle=4" parent="1" vertex="1">
          <mxGeometry x="-1560" y="350" width="100" height="40" as="geometry" />
        </mxCell>
        <mxCell id="Vwcr2eOuwbWK2HyRA7sR-19" style="edgeStyle=orthogonalEdgeStyle;rounded=0;orthogonalLoop=1;jettySize=auto;html=1;exitX=0.5;exitY=1;exitDx=0;exitDy=0;entryX=0.1;entryY=-0.075;entryDx=0;entryDy=0;entryPerimeter=0;endArrow=none;endFill=0;" parent="1" source="Vwcr2eOuwbWK2HyRA7sR-18" target="XW_Ym_8bZxLRkyebTSH3-5" edge="1">
          <mxGeometry relative="1" as="geometry" />
        </mxCell>
        <mxCell id="Vwcr2eOuwbWK2HyRA7sR-22" value="gradId" style="ellipse;whiteSpace=wrap;html=1;align=center;fontStyle=4" parent="1" vertex="1">
          <mxGeometry x="-379" y="730" width="100" height="40" as="geometry" />
        </mxCell>
        <mxCell id="l4TOCZvBJScHaWaNTjH9-1" value="Taught" style="shape=rhombus;perimeter=rhombusPerimeter;whiteSpace=wrap;html=1;align=center;" parent="1" vertex="1">
          <mxGeometry x="-1197" y="440" width="120" height="60" as="geometry" />
        </mxCell>
        <mxCell id="l4TOCZvBJScHaWaNTjH9-4" style="edgeStyle=orthogonalEdgeStyle;rounded=0;orthogonalLoop=1;jettySize=auto;html=1;entryX=0.593;entryY=-0.007;entryDx=0;entryDy=0;entryPerimeter=0;endArrow=ERzeroToMany;endFill=0;" parent="1" source="l4TOCZvBJScHaWaNTjH9-1" target="XW_Ym_8bZxLRkyebTSH3-7" edge="1">
          <mxGeometry relative="1" as="geometry">
            <Array as="points">
              <mxPoint x="-1137" y="610" />
              <mxPoint x="-1279" y="610" />
            </Array>
          </mxGeometry>
        </mxCell>
        <mxCell id="l4TOCZvBJScHaWaNTjH9-7" style="edgeStyle=orthogonalEdgeStyle;rounded=0;orthogonalLoop=1;jettySize=auto;html=1;entryX=1;entryY=0.75;entryDx=0;entryDy=0;endArrow=ERzeroToMany;endFill=0;" parent="1" source="l4TOCZvBJScHaWaNTjH9-5" target="XW_Ym_8bZxLRkyebTSH3-7" edge="1">
          <mxGeometry relative="1" as="geometry" />
        </mxCell>
        <mxCell id="l4TOCZvBJScHaWaNTjH9-8" style="edgeStyle=orthogonalEdgeStyle;rounded=0;orthogonalLoop=1;jettySize=auto;html=1;entryX=0;entryY=0.75;entryDx=0;entryDy=0;endArrow=ERzeroToMany;endFill=0;" parent="1" source="l4TOCZvBJScHaWaNTjH9-5" target="XW_Ym_8bZxLRkyebTSH3-9" edge="1">
          <mxGeometry relative="1" as="geometry" />
        </mxCell>
        <mxCell id="l4TOCZvBJScHaWaNTjH9-9" style="edgeStyle=orthogonalEdgeStyle;rounded=0;orthogonalLoop=1;jettySize=auto;html=1;entryX=0.75;entryY=1;entryDx=0;entryDy=0;endArrow=ERzeroToMany;endFill=0;" parent="1" source="l4TOCZvBJScHaWaNTjH9-5" target="XW_Ym_8bZxLRkyebTSH3-5" edge="1">
          <mxGeometry relative="1" as="geometry">
            <Array as="points">
              <mxPoint x="-1106" y="520" />
              <mxPoint x="-1304" y="520" />
            </Array>
          </mxGeometry>
        </mxCell>
        <mxCell id="l4TOCZvBJScHaWaNTjH9-5" value="Assigned" style="shape=rhombus;perimeter=rhombusPerimeter;whiteSpace=wrap;html=1;align=center;" parent="1" vertex="1">
          <mxGeometry x="-1166" y="640" width="120" height="60" as="geometry" />
        </mxCell>
        <mxCell id="l4TOCZvBJScHaWaNTjH9-11" style="edgeStyle=orthogonalEdgeStyle;rounded=0;orthogonalLoop=1;jettySize=auto;html=1;entryX=0;entryY=0;entryDx=0;entryDy=0;endArrow=none;endFill=0;" parent="1" source="l4TOCZvBJScHaWaNTjH9-10" target="l4TOCZvBJScHaWaNTjH9-1" edge="1">
          <mxGeometry relative="1" as="geometry">
            <Array as="points">
              <mxPoint x="-1167" y="420" />
            </Array>
          </mxGeometry>
        </mxCell>
        <mxCell id="l4TOCZvBJScHaWaNTjH9-10" value="required" style="ellipse;whiteSpace=wrap;html=1;align=center;" parent="1" vertex="1">
          <mxGeometry x="-1275.5" y="400" width="100" height="40" as="geometry" />
        </mxCell>
        <mxCell id="l4TOCZvBJScHaWaNTjH9-13" style="edgeStyle=orthogonalEdgeStyle;rounded=0;orthogonalLoop=1;jettySize=auto;html=1;entryX=0.5;entryY=0;entryDx=0;entryDy=0;endArrow=none;endFill=0;" parent="1" source="l4TOCZvBJScHaWaNTjH9-12" target="l4TOCZvBJScHaWaNTjH9-1" edge="1">
          <mxGeometry relative="1" as="geometry">
            <Array as="points">
              <mxPoint x="-1147" y="420" />
              <mxPoint x="-1137" y="420" />
            </Array>
          </mxGeometry>
        </mxCell>
        <mxCell id="l4TOCZvBJScHaWaNTjH9-12" value="sem" style="ellipse;whiteSpace=wrap;html=1;align=center;fontStyle=4" parent="1" vertex="1">
          <mxGeometry x="-1197" y="370" width="100" height="40" as="geometry" />
        </mxCell>
        <mxCell id="l4TOCZvBJScHaWaNTjH9-15" style="edgeStyle=orthogonalEdgeStyle;rounded=0;orthogonalLoop=1;jettySize=auto;html=1;entryX=1;entryY=0;entryDx=0;entryDy=0;endArrow=none;endFill=0;" parent="1" source="l4TOCZvBJScHaWaNTjH9-14" target="l4TOCZvBJScHaWaNTjH9-1" edge="1">
          <mxGeometry relative="1" as="geometry">
            <Array as="points">
              <mxPoint x="-1069" y="455" />
            </Array>
          </mxGeometry>
        </mxCell>
        <mxCell id="l4TOCZvBJScHaWaNTjH9-14" value="grade" style="ellipse;whiteSpace=wrap;html=1;align=center;" parent="1" vertex="1">
          <mxGeometry x="-1119" y="400" width="100" height="40" as="geometry" />
        </mxCell>
        <mxCell id="l4TOCZvBJScHaWaNTjH9-16" value="grad_plan" style="whiteSpace=wrap;html=1;align=center;" parent="1" vertex="1">
          <mxGeometry x="-327" y="640" width="100" height="40" as="geometry" />
        </mxCell>
        <mxCell id="l4TOCZvBJScHaWaNTjH9-20" style="edgeStyle=orthogonalEdgeStyle;rounded=0;orthogonalLoop=1;jettySize=auto;html=1;entryX=0.75;entryY=1;entryDx=0;entryDy=0;endArrow=none;endFill=0;" parent="1" source="l4TOCZvBJScHaWaNTjH9-19" target="l4TOCZvBJScHaWaNTjH9-16" edge="1">
          <mxGeometry relative="1" as="geometry">
            <Array as="points">
              <mxPoint x="-50" y="750" />
              <mxPoint x="-190" y="750" />
              <mxPoint x="-190" y="710" />
              <mxPoint x="-252" y="710" />
            </Array>
          </mxGeometry>
        </mxCell>
        <mxCell id="l4TOCZvBJScHaWaNTjH9-19" value="cred_hrs" style="ellipse;whiteSpace=wrap;html=1;align=center;strokeColor=default;" parent="1" vertex="1">
          <mxGeometry x="-110" y="760" width="100" height="40" as="geometry" />
        </mxCell>
        <mxCell id="l4TOCZvBJScHaWaNTjH9-21" value="expected_grad_sem" style="ellipse;whiteSpace=wrap;html=1;align=center;strokeColor=default;" parent="1" vertex="1">
          <mxGeometry x="-130" y="680" width="120" height="40" as="geometry" />
        </mxCell>
        <mxCell id="l4TOCZvBJScHaWaNTjH9-22" style="edgeStyle=orthogonalEdgeStyle;rounded=0;orthogonalLoop=1;jettySize=auto;html=1;entryX=0.89;entryY=1.05;entryDx=0;entryDy=0;entryPerimeter=0;endArrow=none;endFill=0;" parent="1" source="l4TOCZvBJScHaWaNTjH9-21" target="l4TOCZvBJScHaWaNTjH9-16" edge="1">
          <mxGeometry relative="1" as="geometry">
            <Array as="points">
              <mxPoint x="-238" y="700" />
            </Array>
          </mxGeometry>
        </mxCell>
        <mxCell id="l4TOCZvBJScHaWaNTjH9-25" value="course_list" style="ellipse;shape=doubleEllipse;margin=3;whiteSpace=wrap;html=1;align=center;" parent="1" vertex="1">
          <mxGeometry x="-317" y="780" width="100" height="40" as="geometry" />
        </mxCell>
        <mxCell id="l4TOCZvBJScHaWaNTjH9-26" style="edgeStyle=orthogonalEdgeStyle;rounded=0;orthogonalLoop=1;jettySize=auto;html=1;entryX=0.369;entryY=0.996;entryDx=0;entryDy=0;entryPerimeter=0;endArrow=none;endFill=0;" parent="1" source="l4TOCZvBJScHaWaNTjH9-25" target="l4TOCZvBJScHaWaNTjH9-16" edge="1">
          <mxGeometry relative="1" as="geometry" />
        </mxCell>
      </root>
    </mxGraphModel>
  </diagram>
</mxfile>
